<?xml version="1.0" encoding="utf-8"?>
<!-- Generator: Adobe Illustrator 16.0.0, SVG Export Plug-In . SVG Version: 6.00 Build 0)  -->
<!DOCTYPE svg PUBLIC "-//W3C//DTD SVG 1.1//EN" "http://www.w3.org/Graphics/SVG/1.1/DTD/svg11.dtd">
<svg version="1.1" id="Layer_1" xmlns="http://www.w3.org/2000/svg" xmlns:xlink="http://www.w3.org/1999/xlink" x="0px" y="0px"
	 width="1440px" height="400px" viewBox="0 0 1440 400" enable-background="new 0 0 1440 400" xml:space="preserve">
<g>
	<ellipse fill="#C6C2AF" cx="128.322" cy="422.029" rx="49.641" ry="19.704"/>
	<g>
		<g>
			<path fill="#88C881" d="M215.751,212.322c-7.671-27.313-33.008-40.034-56.009-40.115c-9.248-23.756-39.94-36.677-64.833-27.122
				c-28.871,11.082-36.699,43.322-29.36,65.99c0.002,0.005,0.003,0.009,0.006,0.016c-8.664,3.804-16.378,10.474-22.084,20.419
				c-12.99,22.637,3.762,52.823,28.947,58.375c23.007,5.074,41.896-10.212,49.04-27.488c10.516,11.53,25.488,19.08,44.554,19.652
				C200.302,283.083,224.919,244.959,215.751,212.322z"/>
			<path fill="#6AA562" d="M156.721,253.835c-21.491,2.055-33.928-9.149-33.928-9.149s-14.703,15.909-44.092,18.128
				c-27.202,2.054-38.084-15.213-39.554-17.795c-1.984,19.715,12.874,40.369,33.271,44.865c23.007,5.074,41.896-10.212,49.04-27.488
				c10.516,11.53,25.488,19.08,44.554,19.652c34.289,1.034,58.906-37.09,49.739-69.727c-7.671-27.313-33.008-40.034-56.009-40.115
				C201.181,202.143,178.211,251.78,156.721,253.835z"/>
		</g>
		<g>
			<path fill="#695020" d="M113.455,426.766c0,0,4.15-145.487,2.963-150.502c-1.186-5.021-16.001-27.956-16.001-27.956
				s18.966,20.784,20.742,12.186c1.776-8.599,5.334-73.827,5.334-73.827s1.184,65.944,5.929,65.228
				c4.738-0.721,24.298-26.523,24.298-26.523s-22.525,34.408-22.525,47.307s1.784,154.087,1.784,154.087H113.455z"/>
		</g>
	</g>
</g>
<g>
	<ellipse fill="#C6C2AF" cx="1311.553" cy="421.076" rx="49.641" ry="19.705"/>
	<g>
		<g>
			<path fill="#88C881" d="M1398.982,211.369c-7.671-27.313-33.008-40.034-56.009-40.115c-9.248-23.756-39.94-36.677-64.833-27.122
				c-28.871,11.083-36.699,43.322-29.36,65.99c0.002,0.005,0.003,0.009,0.006,0.016c-8.664,3.804-16.378,10.474-22.084,20.419
				c-12.99,22.637,3.762,52.823,28.947,58.375c23.007,5.074,41.896-10.213,49.04-27.488c10.516,11.53,25.488,19.08,44.554,19.652
				C1383.533,282.13,1408.15,244.006,1398.982,211.369z"/>
			<path fill="#6AA562" d="M1339.952,252.883c-21.491,2.055-33.928-9.149-33.928-9.149s-14.703,15.909-44.092,18.128
				c-27.202,2.054-38.084-15.213-39.554-17.796c-1.984,19.715,12.874,40.369,33.271,44.865c23.007,5.074,41.896-10.213,49.04-27.488
				c10.516,11.53,25.488,19.08,44.554,19.652c34.289,1.035,58.906-37.089,49.739-69.727c-7.671-27.313-33.008-40.034-56.009-40.115
				C1384.412,201.19,1361.442,250.828,1339.952,252.883z"/>
		</g>
		<g>
			<path fill="#695020" d="M1296.686,425.813c0,0,4.15-145.487,2.963-150.502c-1.186-5.021-16.001-27.956-16.001-27.956
				s18.966,20.784,20.742,12.187c1.776-8.6,5.334-73.828,5.334-73.828s1.184,65.944,5.929,65.228
				c4.738-0.72,24.298-26.522,24.298-26.522s-22.525,34.407-22.525,47.307c0,12.898,1.784,154.087,1.784,154.087H1296.686z"/>
		</g>
	</g>
</g>
<g>
	<ellipse fill="#C6C2AF" cx="1101.645" cy="427.384" rx="49.641" ry="19.705"/>
	<g>
		<g>
			<g>
				<path fill="#94C85B" d="M1085.825,298.803c0,0-58.291-19.636-71.933-61.769c-13.641-42.125,0.91-102.037,54.562-122.632
					c53.654-20.595,121.864,14.977,125.498,73.018c3.638,58.043-32.853,97.316-80.537,111.383H1085.825z"/>
			</g>
			<path fill="#84AF4B" d="M1193.951,187.42c-1.67-26.673-16.981-48.594-38.247-62.506c0,0.001,0,0.001,0,0.001
				c27.117,42.757,4.41,122.763-51.082,136.95c-54.636,13.969-84.247-11.675-85.147-12.471c19.531,33.618,66.35,49.41,66.35,49.41
				h27.59C1161.098,284.736,1197.589,245.463,1193.951,187.42z"/>
		</g>
		<g>
			<path fill="#695020" d="M1090.518,432.121c0,0,4.15-145.487,2.962-150.502c-1.185-5.021-15.999-27.956-15.999-27.956
				s18.964,20.784,20.741,12.187c1.778-8.6,5.335-73.827,5.335-73.827s1.184,65.943,5.927,65.228
				c4.739-0.72,24.299-26.522,24.299-26.522s-22.523,34.408-22.523,47.307s1.782,154.087,1.782,154.087H1090.518z"/>
		</g>
	</g>
</g>
<g>
	<ellipse fill="#C6C2AF" cx="342.449" cy="426.113" rx="49.641" ry="19.705"/>
	<g>
		<g>
			<g>
				<path fill="#94C85B" d="M326.629,297.532c0,0-58.291-19.635-71.933-61.769c-13.641-42.126,0.91-102.038,54.563-122.633
					c53.653-20.595,121.864,14.977,125.497,73.019c3.638,58.042-32.853,97.315-80.537,111.383H326.629z"/>
			</g>
			<path fill="#84AF4B" d="M434.755,186.149c-1.67-26.673-16.981-48.594-38.247-62.506c0,0,0,0,0,0
				c27.117,42.757,4.41,122.763-51.082,136.95c-54.636,13.969-84.247-11.675-85.147-12.471
				c19.53,33.618,66.349,49.409,66.349,49.409h27.59C401.902,283.465,438.393,244.192,434.755,186.149z"/>
		</g>
		<g>
			<path fill="#695020" d="M331.323,430.85c0,0,4.15-145.487,2.962-150.502c-1.186-5.021-16-27.956-16-27.956
				s18.964,20.784,20.741,12.186c1.778-8.599,5.336-73.827,5.336-73.827s1.184,65.944,5.927,65.228
				c4.738-0.721,24.298-26.523,24.298-26.523s-22.523,34.408-22.523,47.307s1.783,154.088,1.783,154.088H331.323z"/>
		</g>
	</g>
</g>
<g>
	<ellipse opacity="0.59" fill="#DDDAD3" cx="738.164" cy="405.847" rx="267.182" ry="14.186"/>
	<g>
		<path fill="#C3D32A" d="M956.365,368.576c-1.248,0-2.461,0.172-3.631,0.492c-1.595-12.762-13.396-22.676-27.728-22.676
			c-6.524,0-12.522,2.06-17.274,5.502c-4.067-4.772-10.066-7.795-16.763-7.795c-3.227,0-6.287,0.705-9.052,1.966
			c-4.15-6.243-11.389-10.38-19.631-10.38c-6.146,0-11.733,2.303-15.899,6.059c-1.768-0.458-3.615-0.705-5.518-0.705
			c-11.906,0-21.652,9.539-22.497,21.625c-4.464,1.567-8.233,4.951-10.708,9.391c-1.179-1.976-2.997-3.542-4.944-4.795
			c-8.997-5.794-21.389-5.453-30.364,0.373s-14.289,16.655-13.975,27.351c0.08,2.748,0.523,5.467,1.275,8.099h7.405h19.689
			l182.501,1.315c2.194-3.381,3.561-11.304,3.561-15.933C972.811,377.479,965.448,368.576,956.365,368.576z"/>
		<path fill="#B3BA27" d="M957.4,401.957c0.003-0.148,0.023-0.291,0.023-0.439c0-3.61-0.768-7.043-2.143-10.162l-0.36-2.669
			c0.037,0.85,0.143,1.692,0.29,2.528c-4.075-9.092-13.366-15.45-24.189-15.45c-4.266,0-8.281,1.01-11.846,2.76
			c-4.898-14.049-18.505-24.183-34.571-24.238c-3.552-0.013-6.981,0.477-10.232,1.385c-8.224-14.193-23.8-23.803-41.709-23.866
			c-20.631-0.072-38.267,12.548-45.15,30.328c-5.337-3.591-11.717-5.697-18.581-5.72c-18.827-0.066-34.143,15.496-34.211,34.757
			c-0.006,2.105,0.179,4.162,0.521,6.167c0.006,2.506,0.742,4.856,1.964,7.035c0.009,0.02,0.017,0.04,0.025,0.062h0.012h55.071
			h4.766h3.304h15.065h35.493h21.752h15.701h2.508h13.898h13.227h7.429h11.546h20.24h0.224
			C957.483,403.607,957.458,402.782,957.4,401.957z"/>
	</g>
	<g>
		<polygon fill="#D8C58B" points="842.155,207.413 845.636,209.777 843.993,204.904 		"/>
		<polygon fill="#D8C58B" points="852.625,195.649 853.077,260.608 867.59,303.831 867.331,196.557 		"/>
		<polygon fill="#E2D6B7" points="868.586,196.563 852.34,196.557 852.34,188.758 868.586,189.075 		"/>
		<polygon fill="#CCBFA2" points="852.34,188.758 841.778,202.518 841.958,207.545 852.729,196.378 		"/>
		<polygon fill="#B2A16F" points="843.993,204.904 844.504,234.375 853.077,260.608 852.729,196.378 		"/>
	</g>
	<polygon fill="#8C372F" points="652.139,230.6 844.564,231.879 868.856,306.037 705.2,306.037 	"/>
	<polygon fill="#602724" points="736.826,231.243 786.654,303.441 705.077,303.64 652.139,230.6 	"/>
	<polygon fill="#D8C58B" points="702.963,404.326 523.164,403.367 525.561,284.62 614.103,216.217 705.2,282.383 	"/>
	<polygon fill="#CEB87C" points="525.322,283.741 525.801,297.167 622.652,223.089 614.103,216.217 	"/>
	<path fill="#C6AF6F" d="M637.277,400.002c0.479-1.419-1.439-117.805-1.439-117.805l33.771-25.784l36.124,25.666l0.921,121.462
		l-69.856-1.171L637.277,400.002z"/>
	<rect x="705.178" y="312.036" fill="#D8C58B" width="163.977" height="91.636"/>
	<rect x="523.661" y="374.918" fill="#80746F" width="113.762" height="29.213"/>
	<g>
		<path fill="#AF9658" d="M694.013,302.251c0-7.618-10.876-13.796-24.293-13.796c-13.415,0-24.292,6.178-24.292,13.796
			c0,0.45,0.111,66.611,0.125,74.234h48.386C693.987,363.479,694.013,302.624,694.013,302.251z"/>
	</g>
	<rect x="705.36" y="312.749" fill="#CEB87C" width="163.791" height="12.466"/>
	<rect x="704.485" y="313.281" fill="#CEB87C" width="55.37" height="90.654"/>
	<rect x="555.928" y="378.915" fill="#2C555B" width="36.12" height="17.26"/>
	<polygon fill="none" points="579.847,378.915 567.686,396.175 570.041,396.175 582.332,378.915 	"/>
	<polygon fill="#75A9AB" points="579.847,378.915 575.866,378.915 563.575,396.175 567.686,396.175 	"/>
	<polygon fill="#75A9AB" points="570.041,396.175 577.557,396.175 590.928,378.915 582.332,378.915 	"/>
	<rect x="810.103" y="375.719" fill="#80746F" width="58.917" height="29.086"/>
	<polygon fill="#B2A16F" points="614.21,216.48 575.945,245.903 655.027,245.903 	"/>
	<polygon fill="#9E8B5E" points="591.972,245.903 622.711,222.652 614.21,216.48 574.894,246.167 	"/>
	<polygon fill="#9E8B5E" points="616.627,226.383 653.647,253.785 659.559,249.056 622.711,222.652 	"/>
	<polygon fill="#CEB87C" points="642.81,245.903 654.239,245.313 659.559,249.056 653.647,253.785 	"/>
	<g>
		<g>
			<polygon fill="#2C555B" points="565.115,363.123 543.376,363.268 543.376,301.968 564.825,301.968 			"/>
			<polygon fill="#B2A16F" points="547.883,363.311 543.058,363.311 543.089,301.103 547.879,301.103 			"/>
			<rect x="543.089" y="301.098" fill="#B2A16F" width="21.736" height="4.637"/>
			
				<rect x="542.939" y="315.861" transform="matrix(1 -0.0017 0.0017 1 -0.5475 0.96)" fill="#D8C58B" width="23.138" height="2.029"/>
			<polygon fill="#75A9AB" points="547.778,341.99 564.91,317.879 564.916,322.395 547.913,346.59 			"/>
			<polygon fill="#75A9AB" points="547.852,350.089 564.93,326.143 565.137,336.257 547.824,358.606 			"/>
		</g>
		<g>
			<polygon fill="#2C555B" points="590.843,362.945 569.105,363.089 569.105,301.789 590.552,301.789 			"/>
			<polygon fill="#B2A16F" points="573.611,363.132 568.788,363.132 568.817,300.924 573.608,300.924 			"/>
			<rect x="568.817" y="300.919" fill="#B2A16F" width="21.738" height="4.637"/>
			
				<rect x="568.668" y="315.683" transform="matrix(1 -0.0017 0.0017 1 -0.5471 1.0045)" fill="#D8C58B" width="23.139" height="2.029"/>
			<polygon fill="#75A9AB" points="573.508,341.812 590.639,317.701 590.645,322.216 573.64,346.411 			"/>
			<polygon fill="#75A9AB" points="573.582,349.91 590.659,325.964 590.863,336.079 573.551,358.427 			"/>
		</g>
		<g>
			<polygon fill="#2C555B" points="616.036,362.945 594.298,363.089 594.298,301.789 615.747,301.789 			"/>
			<polygon fill="#B2A16F" points="598.804,363.132 593.979,363.132 594.01,300.924 598.801,300.924 			"/>
			<rect x="594.01" y="300.919" fill="#B2A16F" width="21.738" height="4.637"/>
			
				<rect x="593.861" y="315.683" transform="matrix(1 -0.0017 0.0017 1 -0.5471 1.0481)" fill="#D8C58B" width="23.139" height="2.029"/>
			<polygon fill="#75A9AB" points="598.699,341.812 615.832,317.701 615.837,322.216 598.834,346.411 			"/>
			<polygon fill="#75A9AB" points="598.774,349.91 615.852,325.964 616.058,336.079 598.745,358.427 			"/>
		</g>
	</g>
	<polygon fill="#9E8B5E" points="616.143,296.348 638.211,318.941 635.838,282.543 	"/>
	<rect x="555.928" y="378.915" fill="#6B615D" width="3.071" height="17.335"/>
	<g>
		<rect x="641.627" y="381.95" fill="#AF9C97" width="52.282" height="8.632"/>
		<rect x="647.145" y="373.48" fill="#C1ACA4" width="46.765" height="8.63"/>
		<rect x="646.882" y="390.262" fill="#C1ACA4" width="47.16" height="8.632"/>
		<rect x="646.882" y="395.876" fill="#AF9C97" width="47.422" height="8.63"/>
	</g>
	<rect x="700.742" y="373.607" fill="#80746F" width="33.104" height="30.722"/>
	<rect x="705.077" y="303.441" fill="#F8F2DC" width="164.741" height="9.446"/>
	<rect x="693.91" y="373.59" fill="#6B615D" width="11.298" height="30.739"/>
	<rect x="637.423" y="374.918" fill="#6B615D" width="9.722" height="29.147"/>
	<g>
		<rect x="654.857" y="305.718" fill="#8C372F" width="29.727" height="68.083"/>
		<rect x="660.929" y="313.387" fill="#2C555B" width="16.167" height="46.029"/>
		<circle fill="#AF9658" cx="680.84" cy="346.003" r="2.365"/>
		<rect x="660.929" y="313.387" fill="#1D4144" width="3.753" height="45.818"/>
	</g>
	<rect x="661.178" y="313.336" fill="#1D4144" width="16.312" height="3.751"/>
	<g>
		<rect x="725.978" y="332.098" fill="#2C555B" width="84.385" height="72.399"/>
		<rect x="725.831" y="331.816" fill="#E8E1CA" width="33.828" height="19.311"/>
		<rect x="725.767" y="350.535" fill="#244447" width="34.023" height="53.893"/>
		<rect x="725.964" y="331.816" fill="#D1CAB6" width="33.498" height="5.517"/>
		<rect x="759.462" y="331.816" fill="#E8E1CA" width="50.961" height="5.517"/>
		<rect x="759.585" y="337.321" fill="#F8F2DC" width="50.806" height="13.234"/>
		<g>
			<rect x="725.733" y="358.388" fill="#E8E1CA" width="33.827" height="4.566"/>
			<rect x="759.486" y="358.394" fill="#F8F2DC" width="50.806" height="4.575"/>
		</g>
	</g>
	<g>
		<path fill="#602724" d="M895.187,380.611c0,0,7.291,6.299,6.108,24.033c0,0,4.597,1.183,6.173,0c0,0,0.329-18.122,3.876-22.457
			l-1.478,0.197l-2.217,5.764c0,0-0.443,0.837-1.231,0.345c0,0-0.443-0.049-0.395-0.985l-0.049-4.138l-1.429-0.937l0.099,4.779
			c0,0-0.099,1.921-0.789,1.823c0,0-0.837,0.295-1.182-0.936c0,0-3.641-8.553-4.926-7.784c-0.246,0.148-2.709,0.493-2.709,0.493"/>
		<path fill="#527022" d="M926.624,310.66c-0.591-39.737-14.235-66.602-22.069-66.602c-0.08,0-0.167,0.019-0.25,0.028
			c-0.083-0.009-0.171-0.028-0.251-0.028c-7.834,0-21.478,26.865-22.069,66.602c-0.163,11.053-1.961,36.491-0.985,45.715
			c2.229,21.047,16.797,27.371,22.964,27.933v0.041c0.108-0.001,0.226-0.011,0.342-0.017c0.115,0.006,0.232,0.016,0.34,0.017v-0.041
			c6.167-0.562,20.734-6.886,22.963-27.933C928.586,347.15,926.788,321.713,926.624,310.66z"/>
		<path fill="#659624" d="M927.018,311.054c-0.591-39.737-14.235-66.602-22.069-66.602c-0.08,0-0.166,0.019-0.249,0.028
			c-0.083-0.009-0.171-0.028-0.251-0.028c-7.834,0-21.478,26.865-22.069,66.605c-0.125,8.442-0.681,16.878-0.987,25.316
			c-0.297,8.162-1.501,16.523,2.082,23.955c1.073,2.223,2.604,4.766,5.072,4.865c2.999,0.117,4.68-3.401,5.243-6.349
			c0.145-0.754,0.827-1.749,1.412-1.252c0.14,0.119,0.211,0.301,0.276,0.475c0.728,1.952,1.456,3.904,2.186,5.856
			c0.558,1.498,1.236,3.132,2.67,3.837c2.38,1.17,5.074-0.936,6.564-3.129c1.672-2.46,2.851-5.252,3.448-8.167
			c0.65,2.09,1.445,4.132,2.383,6.108c1.198,2.523,3.224,5.278,6.01,5.067c1.721-0.129,3.168-1.45,3.941-2.992
			c0.773-1.543,4.038-3.723,4.286-5.185c1.075-6.318,1.216-18.387,1.025-23.505C927.683,327.658,927.141,319.36,927.018,311.054z"/>
		<path fill="#81A549" d="M926.887,310.66c-0.591-39.737-14.233-66.602-22.069-66.602c-0.08,0-0.166,0.019-0.249,0.028
			c-0.083-0.009-0.171-0.028-0.25-0.028c-7.835,0-21.478,26.865-22.069,66.602c-0.126,8.451-3.313,19.743,2.375,26.764
			c1.473,1.82,3.582,3.253,5.919,3.387c2.739,0.157,5.327-1.502,7.001-3.674c1.673-2.172,2.595-4.817,3.492-7.409
			c0.93,3.536,1.876,7.115,3.664,10.302c1.789,3.189,4.542,5.996,8.036,7.066c1.37,0.422,2.891,0.554,4.206-0.012
			c2.02-0.869,3.045-3.11,3.648-5.223c1.037-3.632,1.361-7.465,0.95-11.221c0.211,1.863,0.734,3.691,1.542,5.383
			c0.265,0.553,0.579,1.113,1.09,1.452c5.571,3.69,3.395-9.036,3.336-10.375C927.269,321.622,926.967,316.143,926.887,310.66z"/>
		<path fill="#8ABC3B" d="M926.314,310.532c0.163-0.383,0.286-0.765,0.36-1.139c0.42-2.182-0.252-5.251-0.398-7.486
			c-0.307-4.723-0.808-9.432-1.526-14.11c-1.201-7.848-2.981-15.644-5.634-23.135c-2.017-5.689-6.7-20.063-14.446-20.601
			c-0.04-0.001-0.077-0.003-0.115-0.003c-0.08,0-0.167,0.019-0.25,0.028c-0.083-0.009-0.171-0.028-0.251-0.028
			c-7.451,0-12.357,14.548-14.26,19.767c-2.685,7.363-4.5,15.04-5.747,22.768c-0.747,4.622-1.278,9.277-1.62,13.944
			c-0.228,3.113-1.871,9.649-0.08,12.226c1.238,1.781,4.271,2.303,5.979,0.996c3.073-2.348,1.932-7.671,4.714-10.356
			c0.927,3.267,2.466,6.355,4.514,9.062c1.084,1.429,2.411,2.817,4.15,3.257c3.1,0.779,6.154-1.836,7.349-4.801
			c1.191-2.967,1.136-6.267,1.758-9.401c0.578,3.659,1.564,7.254,2.934,10.696c0.687,1.718,1.515,3.467,2.959,4.626
			c1.442,1.159,3.658,1.553,5.139,0.439c0.671-0.505,1.116-1.247,1.544-1.971C924.229,313.886,925.615,312.188,926.314,310.532z"/>
	</g>
	<g>
		<line opacity="0.51" fill="none" stroke="#D8C58B" stroke-miterlimit="10" x1="659.583" y1="237.155" x2="846.482" y2="237.056"/>
		<line opacity="0.51" fill="none" stroke="#D8C58B" stroke-miterlimit="10" x1="673.574" y1="246.416" x2="849.143" y2="245.727"/>
		<line opacity="0.51" fill="none" stroke="#D8C58B" stroke-miterlimit="10" x1="680.076" y1="253.313" x2="852.034" y2="253.576"/>
		<line opacity="0.51" fill="none" stroke="#D8C58B" stroke-miterlimit="10" x1="692.293" y1="264.15" x2="855.547" y2="264.84"/>
		<line opacity="0.51" fill="none" stroke="#D8C58B" stroke-miterlimit="10" x1="708.648" y1="277.549" x2="859.652" y2="277.485"/>
		<line opacity="0.51" fill="none" stroke="#D8C58B" stroke-miterlimit="10" x1="723.033" y1="291.934" x2="864.906" y2="291.672"/>
	</g>
	<g>
		<polygon fill="#F8F2DC" points="730.9,288.441 615.86,202.792 500.083,291.395 506.072,299.289 614.863,216.764 724.518,296.742 
					"/>
		<polygon fill="#F8F2DC" points="607.709,288.455 615.38,298.045 673.555,253.294 663.327,246.582 		"/>
	</g>
	<g>
		<path fill="#602724" d="M481.214,382.619c0,0,7.488,5.123,6.306,22.857c0,0,4.335,1.97,5.912,0.788c0,0,0.394-17.734,3.94-22.069
			l-1.478,0.197l-2.217,5.764c0,0-0.443,0.837-1.231,0.345c0,0-0.443-0.049-0.395-0.985l-0.049-4.138l-1.429-0.936l0.099,4.778
			c0,0-0.099,1.921-0.788,1.823c0,0-0.838,0.295-1.183-0.936c0,0-3.641-8.553-4.926-7.783c-0.247,0.147-2.71,0.492-2.71,0.492"/>
		<path fill="#527022" d="M512.649,312.667c-0.591-39.739-14.233-66.602-22.069-66.602c-0.078,0-0.166,0.019-0.249,0.028
			c-0.083-0.009-0.169-0.028-0.25-0.028c-7.835,0-21.478,26.863-22.069,66.602c-0.165,11.053-1.962,36.489-0.985,45.715
			c2.228,21.047,16.796,27.371,22.962,27.932v0.043c0.109-0.003,0.226-0.013,0.342-0.019c0.115,0.006,0.232,0.016,0.342,0.019
			v-0.043c6.165-0.561,20.734-6.885,22.962-27.932C514.612,349.156,512.814,323.72,512.649,312.667z"/>
		<path fill="#659624" d="M513.044,313.061c-0.591-39.739-14.234-66.602-22.069-66.602c-0.079,0-0.167,0.019-0.25,0.028
			c-0.083-0.009-0.169-0.028-0.25-0.028c-7.835,0-21.478,26.863-22.069,66.604c-0.125,8.444-0.68,16.88-0.988,25.316
			c-0.297,8.162-1.501,16.523,2.083,23.955c1.071,2.225,2.604,4.768,5.071,4.865c2.999,0.118,4.681-3.401,5.243-6.349
			c0.145-0.753,0.827-1.747,1.412-1.252c0.14,0.12,0.211,0.302,0.276,0.475c0.729,1.952,1.456,3.904,2.186,5.856
			c0.559,1.5,1.236,3.131,2.671,3.837c2.38,1.17,5.072-0.936,6.563-3.129c1.672-2.46,2.851-5.252,3.45-8.165
			c0.648,2.089,1.446,4.132,2.381,6.107c1.198,2.523,3.224,5.278,6.01,5.069c1.721-0.131,3.168-1.45,3.941-2.993
			c0.772-1.542,4.104-4.176,4.986-5.368c3.111-4.198,0.516-18.204,0.326-23.324C513.71,329.665,513.168,321.366,513.044,313.061z"/>
		<path fill="#81A549" d="M512.913,312.667c-0.591-39.739-14.234-66.602-22.069-66.602c-0.08,0-0.167,0.019-0.25,0.028
			c-0.083-0.009-0.169-0.028-0.25-0.028c-7.835,0-21.478,26.863-22.069,66.602c-0.126,8.45-3.311,19.742,2.375,26.765
			c1.473,1.818,3.583,3.251,5.919,3.387c2.739,0.157,5.327-1.503,7.001-3.676c1.675-2.172,2.597-4.815,3.491-7.408
			c0.93,3.534,1.877,7.114,3.664,10.302c1.789,3.188,4.542,5.995,8.036,7.066c1.37,0.42,2.891,0.554,4.207-0.012
			c2.018-0.868,3.045-3.109,3.647-5.225c1.038-3.632,1.361-7.466,0.95-11.22c0.211,1.863,0.734,3.691,1.544,5.382
			c0.263,0.554,0.577,1.115,1.088,1.453c5.571,3.688,3.395-9.038,3.336-10.375C513.295,323.628,512.994,318.149,512.913,312.667z"/>
		<path fill="#8ABC3B" d="M512.34,312.538c0.163-0.382,0.286-0.764,0.36-1.139c0.422-2.182-0.252-5.25-0.397-7.485
			c-0.308-4.723-0.81-9.434-1.525-14.11c-1.203-7.848-2.984-15.645-5.636-23.134c-2.015-5.691-6.699-20.065-14.446-20.601
			c-0.039-0.003-0.077-0.003-0.116-0.003c-0.078,0-0.166,0.019-0.249,0.028c-0.083-0.009-0.169-0.028-0.25-0.028
			c-7.451-0.001-12.357,14.548-14.261,19.766c-2.683,7.362-4.5,15.041-5.747,22.769c-0.745,4.621-1.278,9.275-1.62,13.942
			c-0.228,3.114-1.869,9.651-0.08,12.228c1.238,1.78,4.271,2.302,5.98,0.995c3.071-2.346,1.931-7.669,4.712-10.354
			c0.927,3.265,2.466,6.354,4.514,9.061c1.083,1.429,2.411,2.817,4.15,3.254c3.1,0.782,6.156-1.835,7.349-4.8
			c1.191-2.965,1.136-6.266,1.758-9.4c0.579,3.658,1.564,7.252,2.935,10.693c0.687,1.721,1.515,3.468,2.958,4.627
			c1.444,1.161,3.658,1.553,5.139,0.44c0.671-0.505,1.116-1.249,1.544-1.972C510.256,315.892,511.643,314.194,512.34,312.538z"/>
	</g>
</g>
</svg>
