<?xml version="1.0" encoding="utf-8"?>
<!-- Generator: Adobe Illustrator 16.0.0, SVG Export Plug-In . SVG Version: 6.00 Build 0)  -->
<!DOCTYPE svg PUBLIC "-//W3C//DTD SVG 1.1//EN" "http://www.w3.org/Graphics/SVG/1.1/DTD/svg11.dtd">
<svg version="1.1" id="Layer_1" xmlns="http://www.w3.org/2000/svg" xmlns:xlink="http://www.w3.org/1999/xlink" x="0px" y="0px"
	 width="1600px" height="400px" viewBox="0 0 1600 400" enable-background="new 0 0 1600 400" xml:space="preserve">
<g>
	<ellipse fill="#C6C2AF" cx="270.387" cy="418.351" rx="43.336" ry="17.201"/>
	<g>
		<g>
			<path fill="#88C881" d="M346.71,235.281c-6.696-23.843-28.815-34.948-48.894-35.02c-8.073-20.738-34.867-32.018-56.598-23.676
				c-25.203,9.674-32.037,37.818-25.631,57.607c0.002,0.005,0.003,0.008,0.005,0.014c-7.563,3.321-14.297,9.144-19.279,17.826
				c-11.34,19.762,3.284,46.114,25.27,50.959c20.084,4.43,36.574-8.915,42.811-23.996c9.18,10.066,22.251,16.656,38.895,17.156
				C333.224,297.054,354.714,263.773,346.71,235.281z"/>
			<path fill="#6AA562" d="M295.178,271.521c-18.761,1.794-29.618-7.987-29.618-7.987s-12.835,13.889-38.491,15.826
				c-23.747,1.793-33.247-13.281-34.529-15.535c-1.732,17.211,11.238,35.241,29.045,39.166c20.084,4.43,36.574-8.915,42.811-23.996
				c9.18,10.066,22.251,16.656,38.895,17.156c29.934,0.903,51.424-32.378,43.42-60.87c-6.696-23.843-28.815-34.948-48.894-35.02
				C333.991,226.396,313.938,269.728,295.178,271.521z"/>
		</g>
		<g>
			<path fill="#695020" d="M257.409,422.485c0,0,3.623-127.006,2.587-131.384c-1.035-4.384-13.969-24.405-13.969-24.405
				s16.557,18.144,18.107,10.638c1.551-7.507,4.657-64.449,4.657-64.449s1.034,57.567,5.175,56.942
				c4.137-0.629,21.212-23.154,21.212-23.154s-19.664,30.037-19.664,41.298c0,11.26,1.558,134.514,1.558,134.514H257.409z"/>
		</g>
	</g>
</g>
<g>
	<ellipse fill="#C6C2AF" cx="1351.305" cy="418.143" rx="43.336" ry="17.202"/>
	<g>
		<g>
			<path fill="#88C881" d="M1427.628,235.074c-6.697-23.843-28.815-34.948-48.894-35.02c-8.073-20.738-34.867-32.018-56.598-23.677
				c-25.204,9.675-32.037,37.819-25.631,57.608c0.001,0.004,0.002,0.008,0.005,0.014c-7.563,3.32-14.297,9.144-19.279,17.826
				c-11.34,19.761,3.285,46.113,25.27,50.959c20.085,4.429,36.574-8.916,42.811-23.997c9.18,10.065,22.25,16.656,38.895,17.156
				C1414.141,296.847,1435.631,263.565,1427.628,235.074z"/>
			<path fill="#6AA562" d="M1376.096,271.314c-18.761,1.794-29.618-7.987-29.618-7.987s-12.835,13.888-38.492,15.826
				c-23.746,1.792-33.246-13.281-34.529-15.536c-1.732,17.211,11.239,35.241,29.045,39.167c20.085,4.429,36.574-8.916,42.811-23.997
				c9.18,10.065,22.25,16.656,38.895,17.156c29.934,0.903,51.424-32.378,43.421-60.87c-6.697-23.843-28.815-34.948-48.894-35.02
				C1414.909,226.188,1394.856,269.52,1376.096,271.314z"/>
		</g>
		<g>
			<path fill="#695020" d="M1338.326,422.278c0,0,3.623-127.006,2.587-131.385c-1.035-4.384-13.968-24.405-13.968-24.405
				s16.557,18.144,18.107,10.638c1.55-7.507,4.656-64.45,4.656-64.45s1.034,57.567,5.176,56.943
				c4.136-0.629,21.211-23.154,21.211-23.154s-19.663,30.037-19.663,41.298c0,11.26,1.557,134.514,1.557,134.514H1338.326z"/>
		</g>
	</g>
</g>
<g>
	<ellipse fill="#C6C2AF" cx="1138.654" cy="418.102" rx="43.335" ry="17.202"/>
	<g>
		<g>
			<g>
				<path fill="#94C85B" d="M1124.843,305.854c0,0-50.886-17.142-62.795-53.923c-11.908-36.774,0.794-89.076,47.631-107.055
					c46.839-17.979,106.385,13.075,109.557,63.743c3.175,50.67-28.68,84.954-70.307,97.235H1124.843z"/>
			</g>
			<path fill="#84AF4B" d="M1219.235,208.62c-1.458-23.285-14.825-42.421-33.389-54.566c0,0,0,0,0,0
				c23.672,37.326,3.85,107.169-44.593,119.554c-47.696,12.194-73.545-10.192-74.332-10.886
				c17.05,29.348,57.921,43.133,57.921,43.133h24.085C1190.555,293.574,1222.411,259.29,1219.235,208.62z"/>
		</g>
		<g>
			<path fill="#695020" d="M1128.94,422.237c0,0,3.624-127.006,2.586-131.385c-1.035-4.383-13.967-24.405-13.967-24.405
				s16.555,18.144,18.106,10.639c1.552-7.507,4.658-64.449,4.658-64.449s1.034,57.567,5.174,56.942
				c4.137-0.629,21.212-23.153,21.212-23.153s-19.662,30.037-19.662,41.297s1.556,134.515,1.556,134.515H1128.94z"/>
		</g>
	</g>
</g>
<g>
	<ellipse fill="#C6C2AF" cx="486.327" cy="417.268" rx="43.335" ry="17.202"/>
	<g>
		<g>
			<g>
				<path fill="#94C85B" d="M472.516,305.02c0,0-50.886-17.141-62.796-53.922c-11.908-36.775,0.794-89.076,47.632-107.055
					c46.838-17.979,106.384,13.075,109.556,63.743c3.176,50.67-28.68,84.954-70.306,97.234H472.516z"/>
			</g>
			<path fill="#84AF4B" d="M566.908,207.786c-1.458-23.285-14.824-42.421-33.389-54.566c0,0,0,0,0,0
				c23.673,37.326,3.85,107.169-44.593,119.554c-47.696,12.194-73.545-10.192-74.331-10.887
				c17.049,29.348,57.921,43.133,57.921,43.133h24.085C538.228,292.74,570.083,258.456,566.908,207.786z"/>
		</g>
		<g>
			<path fill="#695020" d="M476.614,421.403c0,0,3.623-127.006,2.585-131.385c-1.035-4.384-13.967-24.405-13.967-24.405
				s16.555,18.144,18.106,10.638c1.552-7.507,4.658-64.449,4.658-64.449s1.033,57.567,5.174,56.942
				c4.136-0.629,21.212-23.154,21.212-23.154s-19.663,30.037-19.663,41.298c0,11.26,1.557,134.515,1.557,134.515H476.614z"/>
		</g>
	</g>
</g>
<g>
	<ellipse fill="#C6C2AF" cx="1530.088" cy="418.752" rx="39.469" ry="15.667"/>
	<g>
		<g>
			<polygon fill="#695020" points="1534.017,322.108 1530.085,322.618 1526.156,322.108 1519.278,422.518 1530.085,422.518 
				1540.896,422.518 			"/>
		</g>
		<g>
			<polygon fill="#588E3F" points="1581.167,345.35 1586.842,345.35 1573.871,315.723 1581.167,315.723 1570.625,292.291 
				1577.112,292.291 1562.52,269.665 1571.438,269.665 1556.845,240.576 1562.52,240.576 1551.169,214.989 1559.276,214.989 
				1546.302,192.902 1555.224,192.902 1539.819,171.088 1547.114,171.088 1530.088,133.917 1513.062,171.088 1520.358,171.088 
				1504.954,192.902 1513.871,192.902 1500.899,214.989 1509.008,214.989 1497.657,240.576 1503.331,240.576 1488.737,269.665 
				1497.657,269.665 1483.061,292.291 1489.548,292.291 1479.007,315.723 1486.306,315.723 1473.331,345.35 1479.007,345.35 
				1465.225,372.288 1530.088,372.288 1594.952,372.288 			"/>
		</g>
	</g>
	<path fill="#44722D" d="M1594.952,372.288l-13.785-26.938h5.675l-12.971-29.627h7.296l-10.542-23.432h6.487l-14.593-22.626h8.918
		l-14.593-29.089h5.675l-11.351-25.587h8.107l-12.974-22.086h8.921l-15.405-21.814h7.295l-17.025-37.171
		c12.263,113.104-0.003,188.701-19.157,210.888c-19.152,22.187-45.707,27.483-45.707,27.483h64.863H1594.952z"/>
</g>
<g>
	<ellipse fill="#C6C2AF" cx="82.515" cy="421.791" rx="39.469" ry="15.667"/>
	<g>
		<g>
			<polygon fill="#695020" points="86.445,325.147 82.513,325.656 78.583,325.147 71.706,425.557 82.513,425.557 93.324,425.557 			
				"/>
		</g>
		<g>
			<polygon fill="#588E3F" points="133.595,348.389 139.269,348.389 126.299,318.761 133.595,318.761 123.053,295.33 129.54,295.33 
				114.947,272.704 123.866,272.704 109.272,243.614 114.947,243.614 103.597,218.027 111.704,218.027 98.73,195.941 
				107.651,195.941 92.247,174.127 99.542,174.127 82.516,136.956 65.49,174.127 72.785,174.127 57.382,195.941 66.299,195.941 
				53.327,218.027 61.436,218.027 50.084,243.614 55.759,243.614 41.165,272.704 50.084,272.704 35.489,295.33 41.976,295.33 
				31.435,318.761 38.733,318.761 25.759,348.389 31.435,348.389 17.653,375.326 82.516,375.326 147.379,375.326 			"/>
		</g>
	</g>
	<path fill="#44722D" d="M147.379,375.326l-13.784-26.937h5.674l-12.97-29.628h7.296l-10.542-23.432h6.487l-14.593-22.625h8.918
		l-14.594-29.09h5.675l-11.351-25.587h8.107L98.73,195.941h8.921l-15.405-21.814h7.295l-17.025-37.171
		c12.263,113.103-0.003,188.7-19.157,210.887c-19.152,22.187-45.707,27.483-45.707,27.483h64.863H147.379z"/>
</g>
<g>
	<ellipse opacity="0.59" fill="#DDDAD3" cx="824.852" cy="406.74" rx="197.252" ry="14.098"/>
	<g>
		<g>
			<path fill="#7FA810" d="M1011.408,393.835c0-10.664-8.26-19.309-18.45-19.309c-2.488,0-4.857,0.521-7.023,1.456
				c-2.386-6.025-7.536-10.594-13.848-12.081c0.444-1.824,0.704-3.72,0.704-5.68c0-12.203-9.104-22.257-20.885-23.801
				c-4.057-7.799-12.011-13.102-21.164-13.102c-8.416,0-15.809,4.489-20.101,11.272c-3.099-4.68-8.463-7.781-14.572-7.781
				c-9.598,0-17.378,7.635-17.378,17.056c0,0.435,0.034,0.862,0.067,1.29c-0.023,0-0.045-0.002-0.067-0.002
				c-9.598,0-17.378,7.635-17.378,17.056c0,0.544,0.031,1.081,0.083,1.613c-0.029,0-0.056-0.003-0.083-0.003
				c-9.329,0-16.919,7.219-17.338,16.272c-6.087,2.654-10.338,8.627-10.338,15.587c0,1.935,0.345,3.786,0.952,5.52h176.083
				C1011.143,397.493,1011.408,395.698,1011.408,393.835z"/>
		</g>
		<path fill="#9ABA25" d="M964.849,370.374c-1.02,0-2.011,0.143-2.966,0.402c-1.302-10.421-10.94-18.516-22.642-18.516
			c-5.328,0-10.225,1.682-14.106,4.493c-3.321-3.898-8.22-6.367-13.688-6.367c-2.635,0-5.134,0.577-7.393,1.605
			c-3.388-5.097-9.299-8.475-16.029-8.475c-5.019,0-9.581,1.879-12.984,4.947c-1.441-0.375-2.95-0.576-4.504-0.576
			c-9.724,0-17.681,7.788-18.371,17.657c-3.646,1.28-6.723,4.042-8.745,7.668c-0.961-1.611-2.446-2.892-4.037-3.916
			c-7.346-4.731-17.466-4.452-24.794,0.305c-7.33,4.756-11.67,13.6-11.412,22.334c0.065,2.244,0.428,4.464,1.04,6.615h6.047h16.079
			l149.028,1.072c1.791-2.761,2.906-9.23,2.906-13.011C978.276,377.644,972.265,370.374,964.849,370.374z"/>
	</g>
	<g>
		<polygon fill="#A8A18F" points="795.794,131.021 785.496,141.963 828.619,203.751 885.258,203.751 		"/>
		<rect x="836.986" y="308.662" fill="#9E998B" width="66.293" height="88.927"/>
		<rect x="833.084" y="387.184" fill="#AAA599" width="66.977" height="10.62"/>
		<polygon fill="none" points="834.198,281.415 900.491,281.415 914.221,305.659 832.911,304.8 		"/>
		<path fill="#153233" d="M831.891,280.851c0.965,0.215,68.138,0.768,68.138,0.768l13.677,23.386l-82.136-0.553L831.891,280.851z"/>
		<polygon fill="#EFE8D8" points="832.963,304.8 832.963,312.845 833.446,312.845 833.165,398.045 837.737,398.019 837.951,312.845 
			899.739,312.845 899.498,398.125 907.946,398.125 907.785,312.845 913.899,312.845 913.899,304.8 		"/>
		<path fill="#EDEBE6" d="M885.238,348.781c0.003-0.105-0.039-10.736-0.039-10.843c0-2.75-1.114-4.443-2.407-4.443
			c-1.295,0-2.28,1.692-2.28,4.443c0,0.07,0.001,10.827,0.002,10.896L885.238,348.781z"/>
		<rect x="837.951" y="312.845" fill="#89857A" width="61.788" height="6.114"/>
		<path fill="#0D2121" d="M858.146,281.523c1.608,1.072,24.458,22.633,24.458,22.633l-50.417,0.322l-0.188-22.929L858.146,281.523z"
			/>
		<rect x="825.348" y="215.765" fill="#B2AEA3" width="74.661" height="65.971"/>
		<rect x="832.046" y="216.396" fill="#A09C92" width="26.208" height="65.22"/>
		<polygon fill="#CEC8B7" points="832.589,209.544 884.813,209.544 900.223,209.544 899.9,220.646 832.911,220.592 		"/>
		<path fill="#E2DCC9" d="M832.482,215.98c0.86,0,67.149,0,67.149,0l0.43-6.973h-67.633L832.482,215.98z"/>
		<path fill="#77746B" d="M832.159,201.123c0.649,0,44.542,0.215,44.542,0.215l10.596,8.152l-54.922-0.213L832.159,201.123z"/>
		<g>
			<polygon fill="#D3C9B8" points="788.602,140.706 795.902,135.527 885.741,210.242 897.487,210.724 796.546,128.125 
				783.891,137.046 			"/>
			<path fill="#D3CEC7" d="M905.264,210.724l-108.396-90c0,0-7.413,5.174-17.896,12.503l4.864,3.777
				c10.886-7.859,12.71-8.878,12.71-8.878l100.941,82.599H905.264z"/>
		</g>
		<rect x="832.722" y="215.926" fill="#BCB5A6" width="26.095" height="4.613"/>
		<rect x="837.951" y="312.845" fill="#89857A" width="2.896" height="85.28"/>
		<g>
			<rect x="840.848" y="326.683" fill="#EDEBE6" width="47.628" height="71.227"/>
			<rect x="850.502" y="329.901" fill="#7A5856" width="26.711" height="67.795"/>
			<path fill="#543D3D" d="M861.343,347.48c0.005-0.106-0.061-7.183-0.061-7.29c0-2.75-1.62-4.979-3.62-4.979
				c-1.999,0-3.621,2.229-3.621,4.979c0,0.07,0.001,7.184,0.004,7.254L861.343,347.48z"/>
			<path fill="#543D3D" d="M872.526,347.48c0.005-0.106-0.061-7.183-0.061-7.29c0-2.75-1.62-4.979-3.621-4.979
				c-1.999,0-3.62,2.229-3.62,4.979c0,0.07,0.001,7.184,0.003,7.254L872.526,347.48z"/>
			<rect x="854.07" y="349.451" fill="#543D3D" width="7.455" height="17.297"/>
			<rect x="865.253" y="349.451" fill="#543D3D" width="7.454" height="17.297"/>
			<rect x="854.07" y="376.645" fill="none" stroke="#543D3D" stroke-miterlimit="10" width="7.455" height="12.47"/>
			<rect x="865.253" y="376.645" fill="none" stroke="#543D3D" stroke-miterlimit="10" width="7.454" height="12.47"/>
			<path fill="#D3CFC7" d="M848.068,348.781c0.004-0.105-0.039-10.736-0.039-10.843c0-2.75-1.114-4.443-2.407-4.443
				c-1.295,0-2.28,1.692-2.28,4.443c0,0.07,0.001,10.827,0.002,10.896L848.068,348.781z"/>
			<path fill="#D3CFC7" d="M884.648,348.781c0.004-0.105-0.039-10.736-0.039-10.843c0-2.75-1.114-4.443-2.409-4.443
				c-1.294,0-2.279,1.692-2.279,4.443c0,0.07,0.001,10.827,0.002,10.896L884.648,348.781z"/>
			<rect x="843.208" y="351.141" fill="#D3CFC7" width="4.88" height="46.341"/>
			<rect x="880.539" y="351.141" fill="#D3CFC7" width="4.88" height="46.341"/>
		</g>
		<polyline fill="none" stroke="#C6BC9E" stroke-miterlimit="10" points="783.266,136.511 795.977,127.633 896.918,210.231 		"/>
		<g opacity="0.61">
			<line fill="none" stroke="#77746B" stroke-miterlimit="10" x1="830.732" y1="220.823" x2="899.633" y2="221.197"/>
			<line fill="none" stroke="#77746B" stroke-miterlimit="10" x1="829.123" y1="226.134" x2="899.633" y2="226.405"/>
			<line fill="none" stroke="#77746B" stroke-miterlimit="10" x1="831.537" y1="232.087" x2="899.976" y2="232.437"/>
			<line fill="none" stroke="#77746B" stroke-miterlimit="10" x1="832.02" y1="237.96" x2="899.922" y2="238.497"/>
			<line fill="none" stroke="#77746B" stroke-miterlimit="10" x1="831.898" y1="243.873" x2="899.976" y2="244.29"/>
			<line fill="none" stroke="#77746B" stroke-miterlimit="10" x1="831.939" y1="249.827" x2="899.922" y2="250.404"/>
			<line fill="none" stroke="#77746B" stroke-miterlimit="10" x1="831.939" y1="255.78" x2="899.976" y2="256.411"/>
			<line fill="none" stroke="#77746B" stroke-miterlimit="10" x1="832.422" y1="261.895" x2="899.976" y2="262.417"/>
			<line fill="none" stroke="#77746B" stroke-miterlimit="10" x1="831.617" y1="267.808" x2="899.922" y2="268.318"/>
			<line fill="none" stroke="#77746B" stroke-miterlimit="10" x1="831.778" y1="273.802" x2="899.976" y2="274.379"/>
			<line fill="none" stroke="#77746B" stroke-miterlimit="10" x1="830.625" y1="279.742" x2="899.922" y2="280.171"/>
		</g>
		<g>
			<rect x="848.534" y="226.493" fill="#FFFFFF" width="25.315" height="41.835"/>
			<rect x="848.534" y="226.493" fill="#E8ECED" width="10.335" height="41.835"/>
			<rect x="854.472" y="233.572" fill="#347989" width="14.052" height="31.752"/>
			<rect x="854.472" y="233.572" fill="#2D6D77" width="4.827" height="31.323"/>
			<polygon fill="#FFFFFF" points="862.187,250.44 862.187,232.392 860.195,232.392 860.195,250.44 853.866,250.44 853.866,252.667 
				868.516,252.667 868.516,250.44 			"/>
		</g>
	</g>
	<path fill="#E2DBCC" d="M687.236,176.719c2.146-1.716,74.661-52.348,74.661-52.348l72.085,56.21l-147.389-0.858L687.236,176.719z"
		/>
	<rect x="685.306" y="193.881" fill="#BFBAA9" width="149.931" height="93.326"/>
	<g opacity="0.61">
		<line fill="none" stroke="#77746B" stroke-miterlimit="10" x1="685.734" y1="203.107" x2="835.807" y2="203.697"/>
		<line fill="none" stroke="#77746B" stroke-miterlimit="10" x1="685.734" y1="209.544" x2="835.807" y2="210.133"/>
		<line fill="none" stroke="#77746B" stroke-miterlimit="10" x1="685.734" y1="216.945" x2="835.292" y2="217.579"/>
		<line fill="none" stroke="#77746B" stroke-miterlimit="10" x1="685.734" y1="224.347" x2="835.372" y2="225.035"/>
		<line fill="none" stroke="#77746B" stroke-miterlimit="10" x1="685.734" y1="231.749" x2="835.372" y2="232.356"/>
		<line fill="none" stroke="#77746B" stroke-miterlimit="10" x1="685.734" y1="239.15" x2="835.292" y2="239.718"/>
		<line fill="none" stroke="#77746B" stroke-miterlimit="10" x1="685.734" y1="246.552" x2="835.292" y2="247.159"/>
		<line fill="none" stroke="#77746B" stroke-miterlimit="10" x1="685.734" y1="253.954" x2="835.292" y2="254.601"/>
		<line fill="none" stroke="#77746B" stroke-miterlimit="10" x1="685.734" y1="261.355" x2="835.412" y2="261.882"/>
		<line fill="none" stroke="#77746B" stroke-miterlimit="10" x1="685.139" y1="268.747" x2="835.211" y2="269.336"/>
		<line fill="none" stroke="#77746B" stroke-miterlimit="10" x1="685.734" y1="276.159" x2="835.264" y2="276.792"/>
		<line fill="none" stroke="#77746B" stroke-miterlimit="10" x1="685.734" y1="283.561" x2="835.184" y2="284.168"/>
	</g>
	<rect x="684.984" y="287.207" fill="#EFE8D8" width="150.93" height="11.264"/>
	<rect x="684.984" y="298.471" fill="#8C372F" width="150.93" height="106.842"/>
	<g>
		<line fill="none" stroke="#6B2724" stroke-miterlimit="10" x1="685.643" y1="306.9" x2="835.716" y2="307.151"/>
		<line fill="none" stroke="#6B2724" stroke-miterlimit="10" x1="685.657" y1="313.336" x2="835.73" y2="313.587"/>
		<line fill="none" stroke="#6B2724" stroke-miterlimit="10" x1="685.674" y1="320.738" x2="835.747" y2="320.989"/>
		<line fill="none" stroke="#6B2724" stroke-miterlimit="10" x1="685.691" y1="328.14" x2="835.764" y2="328.391"/>
		<line fill="none" stroke="#6B2724" stroke-miterlimit="10" x1="685.708" y1="335.542" x2="835.78" y2="335.792"/>
		<line fill="none" stroke="#6B2724" stroke-miterlimit="10" x1="685.724" y1="342.943" x2="835.798" y2="343.194"/>
		<line fill="none" stroke="#6B2724" stroke-miterlimit="10" x1="685.742" y1="350.345" x2="835.814" y2="350.596"/>
		<line fill="none" stroke="#6B2724" stroke-miterlimit="10" x1="685.758" y1="357.747" x2="835.831" y2="357.997"/>
		<line fill="none" stroke="#6B2724" stroke-miterlimit="10" x1="685.774" y1="365.148" x2="835.848" y2="365.399"/>
		<line fill="none" stroke="#6B2724" stroke-miterlimit="10" x1="685.792" y1="372.55" x2="835.865" y2="372.8"/>
		<line fill="none" stroke="#6B2724" stroke-miterlimit="10" x1="685.809" y1="379.952" x2="835.881" y2="380.202"/>
		<line fill="none" stroke="#6B2724" stroke-miterlimit="10" x1="685.826" y1="387.354" x2="835.898" y2="387.604"/>
	</g>
	<path fill="#E5E1DA" d="M675.008,179.722c1.287-1.288,86.567-60.823,86.567-60.823l79.166,60.823l-10.941,0.322l-69.189-51.168
		l-72.086,50.847H675.008z"/>
	<polygon fill="#BFBAA9" points="804.698,170.068 717.165,170.068 717.165,170.068 761.253,136.921 	"/>
	<path fill="#8E8A7E" d="M750.977,179.176c0.857-0.43,12.851-9.752,12.851-9.752l40.168-0.063l13.274,9.734L750.977,179.176z"/>
	<rect x="725.854" y="205.789" fill="#3A869B" width="71.442" height="71.442"/>
	<polygon fill="#A5A092" points="752.886,178.865 782.493,153.548 761.253,136.921 703.112,179.508 	"/>
	<polygon fill="#77746B" points="753.958,179.078 763.828,169.424 716.415,169.854 703.112,179.508 	"/>
	<path fill="#A5A092" d="M759.538,139.174c0.644,0.215,40.762,31.109,40.762,31.109l4.398-0.215l-43.444-33.147l-2.146,3.111"/>
	<polygon fill="#77746B" points="799.007,169.333 811.45,179.096 817.27,179.096 803.754,169.241 	"/>
	<g>
		<rect x="726.176" y="205.789" fill="#337989" width="24.135" height="71.12"/>
		<rect x="725.854" y="205.789" fill="#337989" width="70.799" height="15.125"/>
		<rect x="725.854" y="205.789" fill="#FFFFFF" width="5.792" height="71.442"/>
		<rect x="791.826" y="205.789" fill="#FFFFFF" width="5.792" height="71.442"/>
		<rect x="725.854" y="205.145" fill="#FFFFFF" width="71.442" height="6.114"/>
		<rect x="725.854" y="273.118" fill="#FFFFFF" width="71.442" height="4.445"/>
		<path fill="#FFFFFF" d="M797.618,237.015v-4.445h-19.461v-8.87h17.958v-1.628h-17.958v-12.809h-1.626v12.809H764.15v-16.282
			h-5.792v16.282h-12.381v-14.097h-1.626v14.097h-17.102v1.628h17.102v8.87H728.75v4.445h15.599v11.23h-16.458v1.628h16.458v26.969
			h1.626v-26.969h12.381v27.357h5.792v-27.357h12.381v24.783h1.626v-24.783h18.603v-1.628h-18.603v-11.23H797.618z M776.531,223.7
			v8.87H764.15v-8.87H776.531z M745.976,223.7h12.381v8.87h-12.381V223.7z M745.976,248.245v-11.23h12.381v11.23H745.976z
			 M776.531,248.245H764.15v-11.23h12.381V248.245z"/>
	</g>
	<rect x="684.984" y="298.471" fill="#602724" width="150.715" height="9.547"/>
	<rect x="685.306" y="193.881" fill="#A5A092" width="149.964" height="4.721"/>
	<path fill="none" stroke="#C6BC9E" stroke-miterlimit="10" d="M688.524,179.722c0.965-0.644,72.086-50.847,72.086-50.847
		l69.189,51.168"/>
	<g>
		<rect x="715.878" y="328.078" fill="#F8F2DC" width="91.716" height="77.128"/>
		<rect x="720.276" y="347.923" fill="none" stroke="#C9C3AD" stroke-miterlimit="10" width="79.81" height="57.068"/>
		<g>
			<rect x="720.92" y="332.904" fill="#827671" width="36.472" height="10.942"/>
			<path fill="#FFFFFF" d="M758.464,332.476h-1.501h-0.43h-34.112h-1.823h-0.108v11.853h0.108v0.054h36.365v-0.054h1.501V332.476z
				 M740.657,334.3h7.295v8.259h-7.295V334.3z M738.727,342.559h-7.831V334.3h7.831V342.559z M749.883,334.3h6.65v8.259h-6.65V334.3
				z M728.965,334.3v8.259h-6.543V334.3H728.965z"/>
		</g>
		<g>
			<rect x="764.365" y="332.904" fill="#827671" width="36.471" height="10.942"/>
			<path fill="#FFFFFF" d="M801.908,332.476h-1.5h-0.43h-34.112h-1.823h-0.108v11.853h0.108v0.054h36.365v-0.054h1.5V332.476z
				 M784.102,334.3h7.295v8.259h-7.295V334.3z M782.171,342.559h-7.83V334.3h7.83V342.559z M793.328,334.3h6.649v8.259h-6.649V334.3
				z M772.41,334.3v8.259h-6.544V334.3H772.41z"/>
		</g>
		<rect x="715.878" y="349.96" fill="#827671" width="10.941" height="2.896"/>
		<rect x="715.556" y="397.75" fill="#827671" width="10.942" height="2.896"/>
		<rect x="796.331" y="349.96" fill="#827671" width="10.941" height="2.896"/>
		<rect x="796.009" y="397.75" fill="#827671" width="10.942" height="2.896"/>
		<g opacity="0.35">
			<line fill="none" stroke="#C9C3AD" stroke-miterlimit="10" x1="720.014" y1="356.227" x2="800.301" y2="356.474"/>
			<line fill="none" stroke="#C9C3AD" stroke-miterlimit="10" x1="720.068" y1="365.284" x2="800.354" y2="365.531"/>
			<line fill="none" stroke="#C9C3AD" stroke-miterlimit="10" x1="720.122" y1="374.343" x2="800.408" y2="374.588"/>
			<line fill="none" stroke="#C9C3AD" stroke-miterlimit="10" x1="720.176" y1="383.4" x2="800.461" y2="383.645"/>
			<line fill="none" stroke="#C9C3AD" stroke-miterlimit="10" x1="720.229" y1="392.458" x2="800.516" y2="392.704"/>
			<line fill="none" stroke="#C9C3AD" stroke-miterlimit="10" x1="720.283" y1="401.515" x2="800.57" y2="401.761"/>
		</g>
	</g>
	<g>
		<path fill="#602724" d="M941.687,377.79c-0.759,0.22-1.533,0.394-2.313,0.52c-1.148,3.559-2.713,8.247-6.342,9.334
			c0.377-2.458,1.462-3.653,1.948-6.343c-1.074,0.004-2.149,0.007-3.222,0.011c-0.122,1.756-0.243,3.511-0.364,5.268
			c-0.017,0.223-0.045,0.476-0.223,0.614c-0.4,0.315-0.887-0.268-1.061-0.746c-0.649-1.776-1.296-3.552-1.944-5.328l-3.536,0.242
			c1.856,2.299,2.815,5.217,3.201,8.147c0.388,2.93,0.235,5.902,0.082,8.854c1.12-0.043,2.239-0.083,3.357-0.125
			c0.264-0.01,0.562-0.037,0.725-0.244c0.123-0.158,0.129-0.375,0.128-0.577c-0.005-1.983,0.269-4.495,0.54-6.776
			c2.517-1.161,4.925-2.659,6.688-4.793C941.19,383.619,942.255,380.625,941.687,377.79z"/>
		<path fill="#527022" d="M950.578,348.225c-0.573-19.023-13.82-31.883-21.428-31.883c-0.077,0-0.161,0.009-0.243,0.014
			c-0.081-0.005-0.165-0.014-0.242-0.014c-7.608,0-20.854,12.86-21.428,31.883c-0.16,5.291-1.906,17.467-0.957,21.884
			c2.164,10.074,16.308,13.103,22.295,13.37v0.022c0.104-0.002,0.22-0.006,0.331-0.009c0.111,0.002,0.228,0.007,0.332,0.009v-0.022
			c5.988-0.268,20.132-3.296,22.296-13.37C952.484,365.692,950.738,353.516,950.578,348.225z"/>
		<path fill="#659624" d="M950.95,347.917c-0.58-18.831-13.966-31.561-21.654-31.561c-0.078,0-0.163,0.008-0.245,0.013
			c-0.081-0.004-0.166-0.013-0.244-0.013c-7.688,0-21.074,12.73-21.654,31.561c-0.123,4.001-0.668,7.999-0.97,11.998
			c-0.292,3.868-1.472,7.829,2.044,11.352c1.051,1.053,2.556,2.259,4.976,2.305c2.942,0.055,4.593-1.612,5.145-3.008
			c0.141-0.357,0.811-0.828,1.385-0.593c0.138,0.057,0.206,0.144,0.271,0.225c0.715,0.925,1.429,1.85,2.145,2.774
			c0.548,0.71,1.213,1.484,2.621,1.819c2.334,0.555,4.977-0.444,6.44-1.483c1.639-1.165,2.797-2.489,3.384-3.869
			c0.635,0.989,1.417,1.958,2.337,2.894c1.175,1.197,3.164,2.503,5.897,2.402c1.688-0.062,3.108-0.686,3.866-1.418
			c0.759-0.731,3.962-1.765,4.205-2.457c1.053-2.996,1.193-8.714,1.007-11.14C951.604,355.786,951.072,351.854,950.95,347.917z"/>
		<path fill="#81A549" d="M950.833,347.029c-0.573-18.424-13.82-30.881-21.428-30.881c-0.077,0-0.161,0.009-0.243,0.013
			c-0.081-0.004-0.165-0.013-0.241-0.013c-7.608,0-20.855,12.457-21.428,30.881c-0.122,3.917-3.216,9.154,2.307,12.409
			c1.43,0.844,3.479,1.509,5.747,1.571c2.659,0.072,5.172-0.696,6.797-1.704c1.626-1.007,2.522-2.233,3.392-3.435
			c0.902,1.638,1.821,3.298,3.558,4.775c1.736,1.479,4.409,2.781,7.801,3.277c1.33,0.195,2.807,0.257,4.084-0.006
			c1.961-0.402,2.957-1.442,3.543-2.422c1.005-1.684,1.321-3.461,0.921-5.202c0.204,0.863,0.713,1.71,1.499,2.495
			c0.256,0.256,0.562,0.517,1.057,0.674c5.411,1.71,3.296-4.191,3.239-4.811C951.204,352.111,950.912,349.571,950.833,347.029z"/>
		<g>
			<path fill="#8ABC3B" d="M916.188,348.015c0.944-0.975,1.318-2.362,2.101-3.472c0.782-1.109,2.396-1.917,3.47-1.087
				c0.448,0.348,0.684,0.899,0.877,1.433c0.966,2.669,1.544,5.801,3.903,7.377c2.343,1.566,5.96,0.633,7.255-1.87
				c0.792-1.529,0.748-3.344,1.205-5.003c0.458-1.661,1.819-3.369,3.527-3.15c3.063,0.392,2.566,5.563,5.193,7.186
				c2.021,1.248,4.573-0.293,6.382-1.833c0.298-0.255,0.615-0.511,0.939-0.762c-0.068-0.921-0.12-1.761-0.141-2.47
				c-0.573-19.023-13.82-31.883-21.428-31.883c-0.077,0-0.161,0.009-0.242,0.014c-0.081-0.005-0.165-0.014-0.242-0.014
				c-7.608,0-20.855,12.86-21.428,31.883c-0.002,0.058-0.006,0.127-0.009,0.186c0.155,0.511,0.34,1.013,0.6,1.492
				C909.678,348.867,913.954,350.323,916.188,348.015z"/>
		</g>
	</g>
	<polygon fill="#F9F4E4" points="835.271,193.56 684.984,193.56 674.686,179.4 840.682,179.498 	"/>
	<polygon fill="#E2DCC9" points="685.306,193.881 680.372,186.588 837.947,186.659 835.271,193.881 	"/>
	<g>
		<path fill="#602724" d="M672.487,385.936c-0.759,0.22-1.531,0.395-2.312,0.521c-1.149,3.559-2.713,8.247-6.344,9.334
			c0.377-2.458,1.463-3.653,1.949-6.342c-1.075,0.003-2.148,0.007-3.223,0.011c-0.121,1.754-0.242,3.511-0.365,5.266
			c-0.015,0.225-0.045,0.477-0.221,0.616c-0.401,0.314-0.888-0.269-1.063-0.747c-0.647-1.775-1.295-3.551-1.942-5.328l-3.538,0.242
			c1.857,2.299,2.817,5.218,3.203,8.148c0.386,2.929,0.234,5.901,0.082,8.852c1.119-0.042,2.239-0.083,3.357-0.124
			c0.263-0.011,0.561-0.037,0.723-0.244c0.124-0.158,0.129-0.376,0.129-0.577c-0.006-1.982,0.269-4.495,0.538-6.776
			c2.518-1.159,4.927-2.659,6.688-4.792C671.992,391.765,673.057,388.771,672.487,385.936z"/>
		<path fill="#527022" d="M681.38,356.372c-0.574-19.024-13.82-31.884-21.428-31.884c-0.078,0-0.162,0.009-0.242,0.013
			c-0.081-0.003-0.165-0.013-0.243-0.013c-7.608,0-20.854,12.86-21.428,31.884c-0.16,5.29-1.905,17.467-0.957,21.883
			c2.163,10.076,16.308,13.103,22.295,13.372v0.02c0.105-0.001,0.22-0.005,0.332-0.009c0.111,0.004,0.226,0.008,0.332,0.009v-0.02
			c5.988-0.269,20.131-3.296,22.296-13.372C683.284,373.839,681.54,361.662,681.38,356.372z"/>
		<path fill="#659624" d="M681.752,356.063c-0.581-18.831-13.967-31.562-21.654-31.562c-0.079,0-0.163,0.009-0.246,0.014
			c-0.081-0.005-0.167-0.014-0.245-0.014c-7.688,0-21.074,12.73-21.655,31.563c-0.123,4-0.667,7.999-0.969,11.997
			c-0.293,3.868-1.474,7.83,2.042,11.352c1.053,1.054,2.556,2.258,4.976,2.305c2.943,0.057,4.593-1.611,5.145-3.008
			c0.143-0.357,0.813-0.828,1.385-0.592c0.138,0.057,0.208,0.142,0.271,0.224c0.715,0.925,1.43,1.85,2.144,2.775
			c0.548,0.71,1.213,1.483,2.621,1.818c2.335,0.554,4.979-0.444,6.44-1.482c1.641-1.167,2.797-2.489,3.385-3.869
			c0.636,0.989,1.417,1.957,2.337,2.894c1.175,1.195,3.164,2.501,5.896,2.401c1.688-0.062,3.11-0.687,3.868-1.418
			c0.758-0.73,3.961-1.764,4.205-2.457c1.053-2.995,1.193-8.714,1.007-11.139C682.405,363.932,681.873,360,681.752,356.063z"/>
		<path fill="#81A549" d="M681.635,355.175c-0.574-18.425-13.82-30.88-21.428-30.88c-0.078,0-0.162,0.007-0.242,0.012
			c-0.081-0.005-0.165-0.012-0.243-0.012c-7.608,0-20.854,12.455-21.428,30.88c-0.122,3.918-3.214,9.154,2.307,12.41
			c1.43,0.844,3.478,1.509,5.747,1.57c2.659,0.073,5.173-0.696,6.798-1.703c1.625-1.008,2.52-2.234,3.39-3.436
			c0.903,1.639,1.822,3.298,3.558,4.777s4.408,2.779,7.803,3.275c1.329,0.195,2.807,0.257,4.084-0.006
			c1.96-0.402,2.957-1.442,3.542-2.421c1.007-1.685,1.321-3.462,0.921-5.203c0.205,0.863,0.713,1.71,1.499,2.496
			c0.256,0.255,0.562,0.516,1.058,0.673c5.41,1.711,3.295-4.19,3.239-4.811C682.006,360.257,681.714,357.717,681.635,355.175z"/>
		<g>
			<path fill="#8ABC3B" d="M646.99,356.162c0.944-0.976,1.318-2.363,2.1-3.472c0.782-1.109,2.395-1.917,3.468-1.088
				c0.45,0.347,0.684,0.899,0.878,1.433c0.965,2.669,1.544,5.8,3.903,7.377c2.343,1.565,5.959,0.633,7.256-1.87
				c0.79-1.53,0.748-3.344,1.204-5.004c0.458-1.659,1.82-3.368,3.527-3.149c3.063,0.391,2.567,5.563,5.193,7.185
				c2.021,1.248,4.574-0.292,6.382-1.833c0.298-0.254,0.616-0.511,0.94-0.761c-0.068-0.921-0.119-1.761-0.141-2.471
				c-0.574-19.022-13.82-31.882-21.428-31.882c-0.078,0-0.162,0.009-0.243,0.013c-0.081-0.003-0.164-0.013-0.242-0.013
				c-7.608,0-20.854,12.86-21.428,31.882c-0.002,0.058-0.006,0.126-0.008,0.186c0.155,0.512,0.34,1.014,0.599,1.494
				C640.479,357.013,644.755,358.469,646.99,356.162z"/>
		</g>
	</g>
</g>
</svg>
