<?xml version="1.0" encoding="utf-8"?>
<!-- Generator: Adobe Illustrator 16.0.0, SVG Export Plug-In . SVG Version: 6.00 Build 0)  -->
<!DOCTYPE svg PUBLIC "-//W3C//DTD SVG 1.1//EN" "http://www.w3.org/Graphics/SVG/1.1/DTD/svg11.dtd">
<svg version="1.1" xmlns="http://www.w3.org/2000/svg" xmlns:xlink="http://www.w3.org/1999/xlink" x="0px" y="0px" width="2000px"
	 height="670px" viewBox="0 0 2000 670" enable-background="new 0 0 2000 670" xml:space="preserve">
<g id="Layer_5">
	<rect x="-128.394" y="-120.887" fill="#009444" width="2185.389" height="875.956"/>
</g>
<g id="objects">
	<g id="Layer_3">
		<g id="Layer_4">
		</g>
	</g>
	<g>
		<path fill="#FFF4D9" d="M1412.107,431.244c0-52.597-42.639-95.236-95.238-95.236c-52.598,0-95.238,42.64-95.238,95.236
			c0,52.601,42.641,95.24,95.238,95.24C1369.469,526.484,1412.107,483.845,1412.107,431.244z"/>
		<g>
			<defs>
				<path id="SVGID_1_" d="M1412.107,431.244c0-52.597-42.639-95.236-95.238-95.236c-52.598,0-95.238,42.64-95.238,95.236
					c0,52.601,42.641,95.24,95.238,95.24C1369.469,526.484,1412.107,483.845,1412.107,431.244z"/>
			</defs>
			<use xlink:href="#SVGID_1_"  overflow="visible" fill="#FFF4D9"/>
			<clipPath id="SVGID_2_">
				<use xlink:href="#SVGID_1_"  overflow="visible"/>
			</clipPath>
			<g clip-path="url(#SVGID_2_)">
				<g>
					<path fill="#E8B182" d="M1376.016,432.752c-3.061,3.567-6.838,12.143-6.838,12.143l-8.484,9.903l-14.373,7.472l-11.75,1.905
						l-12.527,30.819c8.975-5.52,47.047-25.3,47.047-25.3l11.904-20.302c0,0,5.447-12.179,4.795-16.65
						C1385.449,430.479,1380.982,426.96,1376.016,432.752z"/>
					<path fill="#E8B182" d="M1372.104,427.042c-0.338-2.265-4.811-5.785-9.766,0.013c-3.064,3.566-6.838,12.146-6.838,12.146
						l-8.482,9.91l-0.711,0.372l2.768-4.729c0,0,4.711-10.552,4.143-14.425c-0.295-1.959-4.166-5.009-8.461,0.01
						c-2.65,3.096-5.92,10.524-5.92,10.524l-7.354,8.587l-12.449,6.477c0,0-1.023,0.201-2.75,0.541
						c-8.619,5.299-23.631,5.809-31.16,6.671c-4.588,0.525-9.721,1.076-14.461,2.287v34.859l51.381-5.291l6.301-14.386
						c8.299-5.199,27.072-16.608,27.072-16.608l11.902-20.31C1367.318,443.69,1372.764,431.513,1372.104,427.042z"/>
					<path fill="#E8B182" d="M1319.604,455.907c2.668,0.515,5.422,0.777,8.078,1.328l2.055-2.602c0,0,5.365-8.588,5.332-12.022
						c-0.016-1.738-3.012-4.853-7.346-1.01c-2.672,2.365-12.258,13.603-12.258,13.603
						C1317.123,455.446,1318.557,455.709,1319.604,455.907z"/>
					<path fill="#E8B182" d="M1340.729,449.701c-4.115-1.536-7.355,0.038-11.383,1.386c-5.795,1.942-11.404,3.861-17.494,4.59
						c-10.986,1.328-24.85-4.021-35.92-2.229c-19.066,3.08-30.447,17.684-41.771,32.764c0.199,0.381,0.402,0.759,0.592,1.144
						c1.146,1.604,2.4,2.977,3.785,3.839c0.834-0.358,1.719-0.432,2.607-0.229c6.617-5.53,12.01-12.594,18.789-17.977
						c7.494-5.954,17.561-7.685,26.838-8.512c10.313-0.923,20.568,1.384,30.857-0.386c4.588-0.789,9.074-2.454,13.457-3.972
						c4.178-1.45,8.156-1.999,11.084-5.441C1343.535,453.071,1342.6,450.401,1340.729,449.701z"/>
					<path fill="#FFC89F" d="M1354.238,462.54c2.258,3.198,1.43,8.722-4.111,12.8c-4.033,2.978-11.119,7.864-11.119,7.864v-0.008
						l-16.719,11.76c-4.031,0.062-65.162,6.725-65.162,6.725l-15.586,7.208l-12.893-28.685c0.852-0.026,26.768-20.268,41.02-20.464
						c15.109-0.21,49.248,14.22,49.248,14.22s11.938-6.527,15.436-8.898C1346.094,457.077,1351.693,458.927,1354.238,462.54z"/>
					<path opacity="0.5" fill="#EDF0F2" d="M1347.957,474.452c0,0,9.205-6,4.895-11.436c-3.191-4.021-11.996,0.057-11.984,0.423
						C1340.881,463.806,1347.957,474.452,1347.957,474.452z"/>
				</g>
				<g>
					<g>
						<path fill="#009F43" d="M1282.883,391.284c-2.225-1.608-3.695-3.766-4.996-6.046c0.096,1.748-0.127,3.663-0.656,5.914
							c-1.91,8.175-3.1,16.562-2.334,24.97c0.68,7.384,2.818,15.206,8.168,20.68c6.002,6.114,15.006,7.17,22.367,2.497
							c0.488-0.316,0.965-0.648,1.43-1.007c2.168,2.619,4.484,4.537,6.412,4.029c0,0,1.6-1.879,1.375-2.562
							c0,0-2.865,0.168-6.27-2.722c5.523-4.981,8.701-12.747,7.035-20.21c-1.676-7.479-6.883-13.598-13.627-17.15
							C1295.646,396.438,1288.594,395.396,1282.883,391.284z"/>
						<path opacity="0.2" fill="#009F43" d="M1277.887,385.238c0.012,0.364,0.012,0.74,0.004,1.117
							c0.83,4.476,0.545,8.459,2.424,12.728c0.912,2.074,1.4,4.22,2.346,6.254c7.146,15.329,16.111,28.993,31.324,36.039
							c0.395-0.575,0.781-1.262,0.664-1.616c0,0-2.865,0.168-6.27-2.722c5.523-4.981,8.701-12.747,7.035-20.21
							c-1.676-7.479-6.883-13.598-13.627-17.15c-6.141-3.239-13.193-4.282-18.904-8.394
							C1280.658,389.676,1279.188,387.519,1277.887,385.238z"/>
						<path fill="#008738" d="M1278.9,388.624c-0.939,3.133,0.289,6.251,0.961,9.339c0.826,3.852,2.305,7.368,4.072,10.78
							c-2.51-0.31-4.973-1.231-7.184-2.429c-0.078-0.03-0.133,0.092-0.057,0.114c2.648,1.011,4.521,2.832,7.441,2.699
							c0.822,1.563,1.707,3.11,2.623,4.656c1.678,2.86,3.559,6.009,5.676,9.116c-4.594,0.724-10.025-0.496-13.773-3.138
							c-0.072-0.049-0.164,0.046-0.096,0.114c3.576,2.867,9.539,4.79,14.127,3.431c2.418,3.53,5.115,6.979,8.148,9.805
							c0.037,0.162,0.17,0.278,0.322,0.309c0.377,0.343,0.75,0.667,1.133,0.987c-5.359,2.013-12.848,1.37-17.586-1.78
							c-0.111-0.064-0.238,0.074-0.133,0.15c4.9,3.606,12.697,4.397,18.332,2.194c0.023-0.008,0.029-0.02,0.043-0.027
							c1.291,1.015,2.615,1.925,3.994,2.673c0.396,0.205,0.693-0.412,0.305-0.625c-1.986-1.077-3.82-2.479-5.547-4.079
							c2.609-5.545,4.854-11.337,4.693-17.554c0-0.109-0.184-0.116-0.197-0.002c-0.719,6.036-2.486,11.521-5.09,16.983
							c-3.717-3.625-6.848-8.182-9.674-12.533c2.129-5.093,2.416-10.414,2.705-15.876c0.008-0.084-0.131-0.122-0.148-0.018
							c-0.66,5.063-1.182,10.294-3.084,15.078c-0.805-1.266-1.596-2.509-2.367-3.69c-2.867-4.431-5.998-9.865-7.85-15.483
							c0.055-0.029,0.098-0.05,0.131-0.116c1.025-1.971,1.17-4.033,1.51-6.187c0.01-0.056-0.08-0.08-0.098-0.037
							c-0.639,1.893-0.898,3.923-1.736,5.728c-1.094-3.519-1.68-7.092-1.357-10.538
							C1279.16,388.505,1278.953,388.468,1278.9,388.624z"/>
					</g>
					<g>
						<path fill="#00B64D" d="M1355.531,373.55c0.621-3.721,2.381-6.847,4.383-9.829c-2.088,1.186-4.574,2.069-7.662,2.792
							c-11.213,2.64-22.25,6.282-32.115,12.343c-8.672,5.335-16.973,12.737-20.434,22.652c-3.867,11.095,0.316,22.807,10.555,29.007
							c0.676,0.402,1.383,0.791,2.096,1.152c-1.902,4.255-2.832,8.269-1.039,10.323c0,0,3.285,0.829,3.982,0.133
							c0,0-1.943-3.419-0.484-9.363c9.504,3.757,20.98,2.931,29.139-3.661c8.182-6.62,12.518-16.75,12.779-27.198
							C1356.973,392.372,1353.953,383.065,1355.531,373.55z"/>
						<path opacity="0.2" fill="#00B64D" d="M1359.914,363.721c-0.428,0.236-0.891,0.461-1.361,0.689
							c-5,3.739-10.063,5.815-14.17,10.732c-1.994,2.383-4.336,4.288-6.258,6.696c-14.484,18.121-25.824,37.463-25.217,60.458
							c0.943,0.141,2.025,0.192,2.389-0.174c0,0-1.943-3.419-0.484-9.363c9.504,3.757,20.98,2.931,29.139-3.661
							c8.182-6.62,12.518-16.75,12.779-27.198c0.242-9.528-2.777-18.835-1.199-28.351
							C1356.152,369.829,1357.912,366.703,1359.914,363.721z"/>
						<path fill="#009E42" d="M1356.379,367.025c-4.424,0.759-7.506,4.17-10.896,6.877c-4.238,3.367-7.658,7.314-10.766,11.572
							c-1.158-3.278-1.52-6.865-1.4-10.311c0-0.116-0.188-0.11-0.16,0c0.361,3.874-0.736,7.288,1.203,10.795
							c-1.426,1.959-2.781,3.995-4.133,6.054c-2.488,3.808-5.205,8.043-7.748,12.529c-3.686-5.195-5.482-12.625-4.533-18.836
							c0.029-0.128-0.152-0.182-0.193-0.044c-1.346,6.141-0.074,14.642,4.391,19.448c-2.867,5.123-5.463,10.545-7.08,15.988
							c-0.189,0.142-0.242,0.387-0.189,0.589c-0.186,0.671-0.361,1.327-0.529,1.982c-5.729-5.352-9.508-14.95-8.516-22.692
							c0.008-0.171-0.248-0.244-0.275-0.072c-1.439,8.227,2.338,18.293,8.486,23.878c0.02,0.022,0.037,0.026,0.057,0.036
							c-0.461,2.197-0.779,4.382-0.85,6.531c-0.016,0.624,0.92,0.61,0.945,0c0.121-3.097,0.721-6.215,1.629-9.305
							c8.408-0.183,16.896-0.947,24.438-4.931c0.148-0.063,0.037-0.295-0.109-0.241c-7.869,2.799-15.672,3.962-23.975,4.09
							c2.18-6.775,5.877-13.396,9.514-19.521c7.557-0.486,14.264-3.39,21.158-6.353c0.105-0.048,0.063-0.24-0.066-0.193
							c-6.621,2.271-13.373,4.818-20.42,5.406c1.066-1.775,2.109-3.5,3.1-5.158c3.697-6.236,8.477-13.391,14.244-19.094
							c0.068,0.05,0.131,0.092,0.223,0.096c3.063,0.057,5.674-1.025,8.533-1.918c0.068-0.026,0.045-0.15-0.023-0.143
							c-2.713,0.364-5.359,1.283-8.1,1.354c3.66-3.494,7.699-6.383,12.133-8.091
							C1356.682,367.273,1356.598,366.997,1356.379,367.025z"/>
					</g>
				</g>
			</g>
		</g>
	</g>
	<g>
		<g>
			<defs>
				<path id="SVGID_3_" d="M734.566,430.24c0-52.602-42.641-95.241-95.236-95.241c-52.602,0-95.24,42.639-95.24,95.241
					c0,52.596,42.639,95.236,95.24,95.236C691.926,525.477,734.566,482.836,734.566,430.24z"/>
			</defs>
			<use xlink:href="#SVGID_3_"  overflow="visible" fill="#D4EEFA"/>
			<clipPath id="SVGID_4_">
				<use xlink:href="#SVGID_3_"  overflow="visible"/>
			</clipPath>
			<g clip-path="url(#SVGID_4_)">
				<path fill="#FF5542" d="M684.934,403.717c-2.277-14.281-11.186-20.762-20.441-21.518c-15.328-1.256-20.645,9.365-21.984,11.443
					c-1.34-2.078-10.695-14.299-26.256-10.848c-7.676,1.705-14.248,8.857-16.17,20.922c-3.895,24.441,29.359,35.773,42.426,45.668
					C655.572,439.49,688.83,428.158,684.934,403.717z"/>
				<g>
					<path fill="#EDB485" d="M568.988,404.219c0.545,3.443-0.404,10.332-0.404,10.332l1.506,9.559l6.176,10.313l6.678,5.775
						l-4.076,24.344c-3.52-6.98-16.584-25.467-19.123-35.045c-1.115-4.219-0.373-16.699-0.373-16.699s1.297-9.816,3.451-12.387
						C563.916,399.111,568.107,398.627,568.988,404.219z"/>
					<path fill="#EDB485" d="M573.686,402.135c1.094-1.301,5.287-1.783,6.164,3.809c0.545,3.443-0.408,10.334-0.408,10.334
						l1.506,9.561l0.305,0.51l0.088-4.063c0,0,1.127-8.502,2.996-10.725c0.947-1.123,4.582-1.543,5.344,3.299
						c0.469,2.984-0.357,8.951-0.357,8.951l1.305,8.287l5.344,8.932c0,0,0.566,0.529,1.527,1.412
						c3.385,6.705,12.666,12.867,17.088,16.34c2.697,2.119,5.723,4.461,8.248,7.072l-13.564,22.021l-30.402-23.334L580.486,453
						c-3.223-6.512-10.643-21.025-10.643-21.025l0.385-17.459C570.229,414.516,571.529,404.703,573.686,402.135z"/>
					<path fill="#EDB485" d="M595.619,440.799c-1.887-0.715-3.729-1.621-5.621-2.307l-0.285-2.439c0,0-0.049-7.514,1.309-9.672
						c0.686-1.092,3.791-1.893,5.031,2.221c0.771,2.533,2.455,13.361,2.455,13.361C597.365,441.473,596.359,441.08,595.619,440.799z
						"/>
					<path fill="#EDB485" d="M626.666,474.805c0.549,1.514,7.906-1.811,7.621-2.707c-1.914-5.969-4.957-11.4-10.119-15.861
						c-6.299-5.439-17.141-7.451-23.563-12.566c-3.564-2.834-6.363-6.227-9.266-9.705c-2.021-2.418-3.455-4.678-6.654-5.307
						c-1.451-0.287-3.084,1.037-2.848,2.582c0.512,3.314,2.811,5.209,4.891,7.752c2.174,2.662,4.361,5.463,6.951,7.744
						c5.814,5.121,13.188,7.656,19.344,12.25C618.566,463.121,624.25,468.131,626.666,474.805z"/>
					<path fill="#FFC89F" d="M605.129,532.063h30.42v-51.209c0,0-0.031-6.789-1.645-9.816c-1.389-2.605-3.955-5.672-8.232-8.389
						c-9.459-6.012-36.645-10.18-36.645-10.18s-5.002-8.766-6.287-11.625c-4.311-9.611-8.568-10.625-11.582-9.332
						c-2.672,1.141-4.301,4.953-2.387,9.686c1.395,3.451,3.969,9.295,3.969,9.295v-0.004l5.988,13.934
						c6.891,9.551,16.23,13.246,25.871,19.771C605.104,484.537,605.195,523.117,605.129,532.063z"/>
					<path opacity="0.5" fill="#EDF0F2" d="M570.49,441.48c0,0-3.484-7.371,1.357-9.129c3.58-1.297,7.553,4.703,7.406,4.93
						C579.102,437.508,570.49,441.48,570.49,441.48z"/>
				</g>
				<g>
					<path fill="#EDB485" d="M709.666,404.219c-0.545,3.443,0.4,10.332,0.4,10.332l-1.504,9.559l-6.172,10.313l-6.682,5.775
						l4.078,24.344c3.52-6.98,16.584-25.467,19.121-35.045c1.117-4.219,0.375-16.699,0.375-16.699s-1.295-9.816-3.449-12.387
						C714.74,399.111,710.547,398.627,709.666,404.219z"/>
					<path fill="#EDB485" d="M704.971,402.135c-1.094-1.301-5.287-1.783-6.166,3.809c-0.543,3.443,0.408,10.334,0.408,10.334
						l-1.504,9.561l-0.305,0.51l-0.092-4.063c0,0-1.125-8.502-2.994-10.725c-0.947-1.123-4.58-1.543-5.342,3.299
						c-0.469,2.984,0.355,8.951,0.355,8.951l-1.305,8.287l-5.344,8.932c0,0-0.566,0.529-1.525,1.412
						c-3.387,6.705-12.668,12.867-17.09,16.34c-2.697,2.119-5.725,4.461-8.246,7.072l13.563,22.021l30.402-23.334L698.17,453
						c3.221-6.512,10.639-21.025,10.639-21.025l-0.381-17.459C708.428,414.516,707.127,404.703,704.971,402.135z"/>
					<path fill="#EDB485" d="M683.035,440.799c1.889-0.715,3.73-1.621,5.623-2.307l0.283-2.439c0,0,0.047-7.514-1.307-9.672
						c-0.691-1.092-3.793-1.893-5.037,2.221c-0.766,2.533-2.451,13.361-2.451,13.361
						C681.291,441.473,682.293,441.08,683.035,440.799z"/>
					<path fill="#EDB485" d="M651.988,474.805c-0.549,1.514-7.904-1.811-7.619-2.707c1.914-5.969,4.955-11.4,10.119-15.861
						c6.297-5.439,17.137-7.451,23.563-12.566c3.564-2.834,6.359-6.227,9.264-9.705c2.02-2.418,3.453-4.678,6.65-5.307
						c1.457-0.287,3.086,1.037,2.852,2.582c-0.51,3.314-2.809,5.209-4.889,7.752c-2.178,2.662-4.363,5.463-6.955,7.744
						c-5.811,5.121-13.188,7.656-19.346,12.25C660.09,463.121,654.406,468.131,651.988,474.805z"/>
					<path fill="#FFC89F" d="M673.525,533.332h-30.418v-52.479c0,0,0.029-6.789,1.643-9.816c1.389-2.605,3.957-5.672,8.232-8.389
						c9.461-6.012,36.643-10.18,36.643-10.18s5.004-8.766,6.291-11.625c4.309-9.611,8.568-10.625,11.582-9.332
						c2.672,1.141,4.297,4.953,2.383,9.686c-1.393,3.451-3.965,9.295-3.965,9.295l-0.004-0.004l-5.986,13.934
						c-6.891,9.551-16.23,13.246-25.869,19.771C673.553,484.537,673.459,524.387,673.525,533.332z"/>
					<path opacity="0.5" fill="#EDF0F2" d="M708.162,441.48c0,0,3.482-7.371-1.354-9.129c-3.58-1.297-7.557,4.703-7.408,4.93
						C699.553,437.508,708.162,441.48,708.162,441.48z"/>
				</g>
			</g>
		</g>
	</g>
	<g>
		<g>
			<defs>
				<path id="SVGID_5_" d="M1095.236,335c0-52.598-42.637-95.236-95.236-95.236c-52.597,0-95.236,42.639-95.236,95.236
					c0,52.594,42.64,95.236,95.236,95.236C1052.6,430.236,1095.236,387.594,1095.236,335z"/>
			</defs>
			<use xlink:href="#SVGID_5_"  overflow="visible" fill="#CFFFF5"/>
			<clipPath id="SVGID_6_">
				<use xlink:href="#SVGID_5_"  overflow="visible"/>
			</clipPath>
			<g clip-path="url(#SVGID_6_)">
				<g>
					<path fill="#8DB90A" d="M1042.828,312.443c0.705-23.816-18.032-43.695-41.853-44.4c-23.82-0.703-43.701,18.039-44.403,41.859
						c-0.703,23.814,18.036,43.693,41.855,44.398C1022.246,355,1042.129,336.262,1042.828,312.443z"/>
					<g>
						<path fill="#FFF4DE" d="M983.858,349.818c-0.103-0.902-0.951-0.416-1.241-1.086c-0.377-0.82,0.519-0.463,0.717-0.768
							c0.004-0.004,0.202-1.188,0.206-1.211c0.009-0.076-0.442-0.219-0.393-0.264c0.194-0.373,0.4,0.182,0.465,0.23
							c0.187,0.141-0.054-0.344-0.353-0.516c-0.098-0.07-0.734-0.695-0.521-0.881c0.114-0.094,1.441,0.836,1.464,0
							c0.012-0.275-0.431-0.902-0.377-1.184c-0.016,0.064,2.355,0.318,2.38-0.508c0.006-0.246,0.585-0.934,0.14-1.098
							c-0.02-0.004-1.063-1.236-1.063-1.24c-0.004,0.09,1.473,0.346,1.521,0.361c0.587,0.182,1.986-1.166,1.7-1.926
							c-0.022-0.049,0.118-1.152,0.48-0.895c0.076,0.098-0.471,0.793-0.227,0.797c0.531,0.016,1.146-2.789,1.08-3.025
							c-0.409-1.408,1.376-1.314,1.628-1.695c0.389-0.58,0.545-0.605,1.506-0.574c0.379,0.012,1.398-1.723,1.414-2.209
							c0.016-0.461,0.061-3.594,0.316-3.953c0.833-1.135,3.541-3.703,1.826-5.18c-0.195-0.176-0.685,0.014-0.891-0.121
							c-0.569-0.373-0.914-1.223-1.645-1.436c-0.597-0.199-2.15,0.033-2.485-0.123c0.019,0.01,0.078-0.912-0.194-0.918
							c-0.082,0.066-0.154,0.139-0.223,0.221c0.043-1.494-2.032-0.186-2.333,0.361c0.028-0.443,1.142-1.893-0.218-1.666
							c-0.059,0.014-0.379-2.527-0.871-2.545c-0.283-0.004-0.527-0.752-0.892-0.826c-0.435-0.068-0.853-0.297-1.325-0.336
							c-0.425-0.016-1.404-0.658-1.584-0.412c0.326-1.252-0.834-0.904-1.288-1.365c0.069,0.111,0.21-1.182-0.343-0.758
							c-0.145,0.107-0.453-0.182-0.557-0.402c0.092-0.021,0.591-0.004,0.577-0.145c-0.059-0.26-3.245,0.537-3.663-0.162
							c0.344-0.32-1.547-1.225-0.928-0.441c-0.318,0.217-0.589,0.041-0.656,0.039c0,0-0.201,0.287-0.217,0.354
							c0.012-0.258,0.543-1.279-0.027-1.021c-0.327-0.02-0.908,0.621-1.414,0.611c-0.436,0.018-1.522,2.166-1.646,2.133
							c-0.385-0.117-0.375-0.969-1.082-0.988c-0.28-0.008-0.9,0.363-1.308,0.352c-0.721-0.018-1.72-1.637-1.129-2.197
							c0.47-0.518,0.637-1.881-0.083-1.992c-0.18-0.004-0.542-0.531-1.148-0.285c-0.289,0.107-1.014-0.049-1.292-0.15
							c0.466-0.5,0.532-1.262,0.959-1.805c0.499-0.58,0.875-1.561,0.234-1.719c-0.867-0.266-2.384,0.906-2.371,1.746
							c0.006,0.107-1.673,0.004-1.841,0.254c-0.044,0.105-0.845-1.262-0.959-1.414c-0.417-0.6-0.116-1.313-0.055-2.031
							c0.112-1.969,1.24-3.002,2.568-3.803c0.008,0.018,1.414,0.135,1.592,0.025c0.232,0.547,1.058,0.416,0.879,0.188
							c0.255-0.006,0.244,0.355,0.351,0.391c0.491,0.145,0-0.414-0.062-0.477c0.271-0.191,0.746-0.334,1.075-0.67
							c0,0.104-0.11,0.258-0.11,0.322c0.002,0.014,0.819-0.137,0.955-0.045c0.539,0.119,0.204,0.691,0.894,0.314
							c0.907-0.693,0.612,1.57,0.507,1.41c0.092,0.127,0.18-0.07,0.225-0.102c-0.001,0.027-0.026,0.723,0.035,0.744
							c-0.05,0.025-0.111,0.051-0.088,0.125c0.006,0.016,0.488,1.219,0.729,0.891c0.465-0.611,0.703-1.594,0.505-2.309
							c-0.437-1.467,1.61-3.523,3.053-3.607c0.116-0.004,1.153-0.908,0.671-0.928c0.444-0.58-0.04-0.406,0.044-0.695
							c0.062-0.121,0.542-1.398,0.819-1.412c-0.036,0.045-0.602,1.094-0.301,1.021c-0.148-0.004-0.301,0.361-0.213,0.461
							c0.232,0.283,0.796-1.301,0.808-1.422c0,0.006,0.244,0.381,0.148,0.379c0.477,0.014,0.747-1.033,0.903-1.227
							c0.088,0.037,1.258,0.039,1.079-0.203c-0.017-0.025-0.082-0.029-0.16-0.018c0.263-0.041,0.519-0.094,0.606-0.311
							c-0.04-0.016,0.253,0.127,0.385,0.139c-0.072,0.041-0.194,0.086-0.19,0.117c0.011,0.246,1.092-0.574,0.595-0.59
							c0.013,0-0.186,0.24-0.258,0.27c0.002-0.158-0.131-0.275-0.12-0.359c0.12-0.477,1.205-0.945,1.674-1.266
							c0,0.057-0.31,0.318-0.118,0.324c0.274,0.008,1.601-0.609,1.694-0.842c-0.022,0.33,0.675-0.119,0.871-0.27
							c-0.046,0.082-0.378,0.244-0.374,0.258c0.008,0.176,0.461-0.008,0.504-0.018c-0.244,0.139-0.814,0.471-1.189,0.461
							c-0.408-0.012-0.264,1.105,0.199,0.689c0.354-0.137,0.514-0.561,0.772-0.688c0.046,0.045,0.13,0.232,0.072,0.23
							c0.618,0.021,2.6-1.188,2.194-1.203c0.021-0.037,0.417-0.406,0.084-0.416c-0.376-0.016-0.624,0.656-0.786,0.824
							c-0.03,0.008-0.055,0.016-0.083,0.018c-0.201-0.041-0.719-0.082-0.994-0.32c-0.483-0.611,0.294-0.891,0.189-1.105
							c0.016,0.029-0.973-0.025-1.047-0.074c0.24,0.014,1.135,0.09,1.323-0.301c0.699-1.4-3.774,0.873-3.751,0.873
							c0.943-0.602,1.864-1.295,2.773-1.738c0.936-0.445,3.575,0.672,4.236-0.557c0.446-0.15,1.014-0.188,1.54-0.451
							c0.688-0.404,0.4-1.348-0.225-1.469c0.167-0.018,0.316-0.051,0.381-0.15c-0.004,0.008-0.24-0.383-0.286-0.432
							c-0.084,0.031-0.789,0.061-0.869-0.016c-0.259-0.182,0.039-0.561-0.381-0.729c0.098-0.076,0.511-0.309,0.469-0.477
							c-0.055-0.049-0.112,0.023-0.179,0.023c0.106-0.141-0.26-2.049-0.236-2.035c0.091,0.053-2.028,1.166-2.124,1.33
							c-0.079-0.168-0.781-1.498-0.109-1.67c-0.264-0.043-0.721-0.172-0.721-0.172c0.068-0.031,0.281-0.086,0.295-0.189
							c0.038-0.664-3.36-0.754-2.708,0.018c-0.252,0.137-0.927,0.906-1.056,1.209c-0.248,0.551-0.58,0.021-0.2,0.857
							c0.341,0.727-1.043,1.342-1.439,1.551c-0.783,0.422-0.928,0.119-1.081,0.992c-0.093,0.596-0.425,0.828-0.68,1.336
							c0.03-0.363-0.484-0.09-0.707-0.074c0.135-0.215-0.012-0.438-0.246-0.49c0.106-0.039,1.482-2.828-0.645-1.861
							c0.42-0.543-2.146-1.164-2.554-1.176c0.046-0.066,0.501-0.914,0.435-0.98c-0.347-0.318-0.983-0.008-0.07-0.75
							c0.272-0.205,1.054-1.07,1.436-0.996c0.061,0.045,0.99-0.514,1.145-0.471c1.367,0.383-0.145-0.678-0.316-0.771
							c0.666,0.221,1.117,0.496,1.642-0.057c0.177,0.625,1.967-0.449,1.723-0.596c0.256-0.113,0.557-0.254,0.827-0.295
							c-0.585,0.438-1.063,0.996-1.574,1.332c0.976,0.004,0.225,0.047,0.501,0.27c0.593,0.443,1.289-1.145,1.443-0.27
							c0.857,0.305,1.29,0.15,0.563-0.299c0.424-0.146-0.659-1.113-0.573-1.113c-0.097,0-0.082,0.402-0.25,0.443
							c0.172-0.215,0.1-0.436-0.019-0.588c0.289-0.029,0.913,0.518,0.934,0.475c0.052-0.104-0.16-0.311-0.221-0.359
							c0.103-0.086,0.297,0.217,0.313-0.152c0.221,0.371,1.702-0.465,1.464-0.652c0,0,0.524-0.719,0.44-0.967
							c0.169,0.334,1.652-0.094,1.803-0.469c0.146,0.162,0.223,0.162,0.387,0.244c-0.014,0.027-0.183,0.17-0.164,0.221
							c0.01,0.023,0.58,0.195,0.564,0.189c0,0.039-0.028,0.068-0.028,0.104c-0.14,0.068-0.542-0.113-0.526,0.201
							c0.002,0.199,0.421-0.008,0.496,0c-0.304,0.328,0.181,0.139,0.314,0.076c0,0.086-0.016,0.18-0.016,0.27
							c-0.096,0-0.395-0.049-0.351,0.176c0.021,0.117,0.815,0.273,0.483-0.215c0.029-0.029,0.05-0.064,0.06-0.1
							c0.002-0.061,0.509,0.654,0.17,0.686c-0.574,0.055-1.179,0.4-1.191,0.838c-0.482,0.273-2.159-0.34-2.354,0.461
							c-0.145,0.596,1.794,0.008,1.738,0.004c0.214,0.006,0.26,0.551,0.318,0.699c0.128,0.309,1.447,1.094,2.251,1.119
							c0.462,0.014-0.533-1.068-0.562-1.137c0.211,0.008,1.084,0.475,1.142,0.678c0.183,0.723,0.476-0.633,0.403-0.6
							c0.012-0.004,0.02-0.008,0.031-0.01c0.257,0.576,0.236-0.172,0.141-0.436c0.068,0.01,0.098,0.135,0.19,0.135
							c0.118,0.004-0.663-0.961-0.759-0.947c0.027-0.93,1.466,1.176,1.836,0.121c0.307,0.305,1.021-0.332,1.279-0.514
							c0.004-0.016,0.007-0.029,0.007-0.047c-0.167-0.082-2.142-1.123-2.142-1.119c-0.039-0.189,0.968-0.205,0.972-0.332
							c0.002-0.029-0.368-0.146-0.442-0.154c0.008-0.021,0.016-0.045,0.016-0.07c0.096,0.01,0.291,0.113,0.373-0.008
							c0.18-0.363-0.441-0.254-0.549-0.207c0.018-0.055,0.344-0.189,0.292-0.299c-0.128-0.273-1.504-0.771-1.698-0.342
							c-0.13-0.59-0.496-0.455-0.667-0.785c0.021-0.727-0.19-0.059-0.981-0.617c-0.342-0.225-0.254,0.389-0.248,0.367
							c-0.223,0.453,0.821,0.119,0.887,0.178c0.068,0.133-1.52,0.271-1.521,0.32c0.002-0.127,0.539-0.484,0.541-0.742
							c0.008-0.287-2.584,0.211-2.722,0.775c-0.03,0.135,0.412,0.125,0.366,0.225c-1.516,0.055,0.965-1.135,0.965-1.15
							c-0.13-0.496-3.198,0.469-3.224,1.223c0-0.004,0.78,0.09,0.901,0.152c-2.778,0.258,1.336,0.623,1.333,0.596
							c-0.006,0.254-0.761,0.041-0.871,0.045c-0.624-0.012-0.336,0.473-0.351,0.479c-0.068,0.098-1.065,0.498-1.178,0.525
							c-0.054,0,0.265-0.229,0.117-0.229c-0.179-0.008-0.666,0.355-0.316,0.369c-0.594,0.492-0.88-0.318-0.365-0.297
							c0.519,0.133,0.168-0.451-0.218-0.635c-0.007-0.363-0.827-0.172-0.861-0.217c0.892-0.568,0.337-0.26,0.362-1.164
							c0.522-0.129,2.474-0.408,2.74-0.873c0.004-0.029,0.004-0.053-0.005-0.078c-0.229-0.648-2.499,0.053-2.677,0.322
							c-0.255,0.377-1.44,1.279-1.354,1.283c-0.092,0.039-0.495,0.053-0.547,0.156c-0.144,0.313,0.695,0.439,0.77,0.49
							c-0.097,0.031-0.763,0.137-0.759,0.283c0.072,0.063,0.162,0.086,0.262,0.074c-0.018,0.025-0.018,0.049,0,0.068
							c-0.164,0.074-1.468,0.5-1.289,0.676c-0.043-0.029-0.08-0.078-0.129-0.086c0.03-0.107,0.52-0.426,0.517-0.434
							c-0.004-0.068-0.437-0.021-0.505-0.125c0.019-0.051,1.278-0.324,1.347-0.475c0.166-0.332-2.147-0.215-2.062,0.203
							c0.057,0.201,0.427-0.021,0.527,0.09c-0.871,0.439-1.542,0.707-2.986,0.242c0.517-0.152,0.024-0.221-0.09-0.348
							c0.034,0.008-1.444-0.139-1.566,0.166c-0.092,0.148,0.271,0.219,0.326,0.236c0.055-0.047-0.62,0.621-0.456,0.564
							c-0.015,0-0.167-0.039-0.177-0.061c0.055-0.146,0.004-0.469-0.322-0.449c0.034-0.066,0.365-0.127,0.362-0.17
							c0-0.018-0.336,0.027-0.765,0.08c-7.832,6.006-13.561,14.637-15.84,24.631c0.053,0.061,0.093,0.125,0.123,0.182
							c0.117,0.197-0.431,0.447-0.117,0.641c0.217,0.131,0.443,0.289,0.51,0.549c0.078,0.293,0.475,0.852,0.658,1.143
							c0.529,0.869-0.068,1.27,0.038,1.887c0.19,1.119,2.59,2.162,3.465,2.506c0.865,0.352,0.976,0.16,1.919,0.1
							c0.517,0.133,1.299,1.281,1.565,1.266c0.507,0.016,1.589,0.619,2.241,0.637c0.495,0.014,0.709,2.48,1.128,2.498
							c0.058-0.107,0.104-0.211,0.147-0.318c0.539,0.016,0.583,1.43,1.061,1.445c0.031,0,0.382-0.633,0.69-0.146
							c-0.008,0.289-0.229,0.129-0.269,0.203c-0.04,0.053,0.098,0.277,0.128,0.281c0.095,0,1.633-0.074,0.759-0.588
							c0.251-0.113,0.777-0.742,0.988-0.305c0.086,0.191,0.668,1.334,0.608,1.439c-0.32,0.613-0.084,1.541,0.006,1.793
							c0.146,0.336-1.496,1.139-0.997,1.494c-0.839,0.453-0.453,0.674-0.957,1.201c-0.407,0.396-0.19,1.75,0.29,1.143
							c-0.164,0.918-0.981,1.033-0.507,1.906c0.393,0.771-0.645-0.426,0.545,0.904c0.176,0.203,0.513,0.84,0.629,1.086
							c0.26,0.551,0.385,1.359,0.734,1.809c0.802,1.234,1.061,2.354,2.365,3.215c1.109,0.695,2.229,1.189,2.184,2.68
							c-0.026,0.947,0.048,1.803,0.066,2.695c-0.005,0.742-0.257,1.959-0.123,2.75c-0.016,0.523,0.213,2.445,0.491,2.852
							c0.092,0.121-0.106,2.244-0.2,2.346c-0.063,0.039-0.253-0.035-0.299,0.033c0,0.004,0.915,2.887,1.006,2.932
							c-0.061,0.023-0.164-0.109-0.205-0.059c-0.271,0.258,0.521,1.58,0.563,0.904c-0.004,0.057-0.327-1.055-0.046-0.957
							c0.29,0.039,0.584,1.697,0.366,1.896c-0.166-0.002-0.208-0.438-0.4-0.445c0.134,0.008-0.04,1.275-0.042,1.762
							c0.042,0.018,0.08,0.047,0.122,0.066c0.023-0.045,0.038-0.092,0.05-0.113c0.11,0.195,0.686,0.215,0.697-0.131
							c0.107,0.143,0.271,0.547,0.189,0.711c-0.071-0.018-0.22-0.111-0.313-0.133c1.246,0.666,2.528,1.266,3.844,1.805
							C983.37,350.945,983.811,349.354,983.858,349.818z M990.615,285.459c-0.054,0.025-0.1,0.051-0.154,0.09
							C990.5,285.506,990.554,285.48,990.615,285.459z M989.837,285.746c0.244-0.111,0.391-0.186,0.591-0.168
							c-0.156,0.176-0.587,0.164-0.605,0.176C989.883,285.725,989.856,285.734,989.837,285.746z M980.398,293.18
							c-0.121,0.018-0.242,0.047-0.281,0.047C980.205,293.203,980.298,293.193,980.398,293.18z M988.004,279.801
							C987.613,280.002,988.202,279.598,988.004,279.801L988.004,279.801z M986.284,275.025
							C986.318,275.029,986.284,275.025,986.284,275.025C986.357,275.043,986.406,275.117,986.284,275.025L986.284,275.025z
							 M982.343,276.502c0.008-0.008,0.02-0.008,0.038,0c-0.082,0.1-0.141,0.266-0.148,0.543
							C982.188,276.938,982.267,276.537,982.343,276.502z M981.664,278.582c-0.355,0.014-0.819-0.314-0.949-0.305
							C981.161,278.238,981.307,278.389,981.664,278.582z M978.785,277.146C979.183,277.33,978.651,277.199,978.785,277.146
							C978.785,277.146,978.736,277.166,978.785,277.146z M972.556,302.092c0.006-0.012,0.016-0.029,0.023-0.059
							C972.592,302.063,972.577,302.08,972.556,302.092z M968.727,299.785C969.028,299.441,968.616,299.967,968.727,299.785
							L968.727,299.785z M969.434,311.828C969.395,311.854,969.419,311.836,969.434,311.828c-0.086,0.053-0.363-0.117-0.497-0.064
							c0.092-0.039,0.014-0.375-0.06-0.377C968.946,311.389,969.664,311.66,969.434,311.828
							C969.438,311.828,969.438,311.828,969.434,311.828z M977.006,313.223c-0.032,0.043-0.024,0.031-0.015,0.018
							c-0.555,0.67-0.229-0.648-0.206-0.783c0.006,0.229,0.422,0.49,0.225,0.764C977.02,313.205,977.025,313.201,977.006,313.223z
							 M979.533,348.516C979.529,348.508,979.561,348.545,979.533,348.516L979.533,348.516z M979.339,347.77
							C979.465,347.619,979.11,348.096,979.339,347.77L979.339,347.77z M979.369,348.18c0.031,0.09,0.092,0.189,0.092,0.254
							C979.408,348.357,979.383,348.27,979.369,348.18z"/>
						<path fill="#FFF4DE" d="M1004.429,281.25c0,0.082-0.15,0.482-0.181,0.561c0.078-0.066,0.288-0.299,0.373-0.275
							c-0.009,0.207-0.573,0.365-0.505,0.508c0.106,0.191,0.358-0.193,0.396-0.193c-0.022,0.135-0.194,0.322-0.143,0.471
							c0.076,0.123,0.453-0.332,0.479-0.332c0.158,0.127-0.473,0.855,0.547,0.482c0.093,0.184-0.284,0.441,0.223,0.455
							c-0.022,0.758-1.01,0.189-1.018,0.529c0.064,0.057,0.138,0.07,0.223,0.041c-0.042,0.199-0.249,0.072-0.131,0.344
							c0.053,0.086,0.183-0.115,0.272-0.088c-0.078,0.123-0.589,0.486-0.566,0.561c0.052,0.172,0.839,0.217,1.06,0.188
							c-0.064,0.053-1.559,0.531-1.438,0.785c-0.021-0.078,3.531-0.295,3.482-0.654c-0.016-0.057-0.344-0.123-0.361-0.123
							c0.235-0.367,1.027-1.121-0.143-0.832c0.298-0.289-0.568-1.516-0.755-1.629c-0.407-0.275-0.469-0.307-0.171-0.592
							c0.871-0.834-0.465-0.25-0.703-0.584c0.039,0.053,0.992-0.77,0.806-0.902c-0.068-0.082-0.45-0.037-0.495,0.025
							c-0.08,0.076,0.095,0.174,0.11,0.236c-0.069,0.121-0.899,0.414-1.045,0.525c-0.108,0.066-0.229-0.004-0.181,0.246
							c-0.192-0.213-0.265-0.033-0.5-0.014c0.012,0.078,0.033,0.553-0.024,0.658C1004.146,281.588,1004.35,281.287,1004.429,281.25z
							"/>
						<path fill="#FFF4DE" d="M1004.033,283.83c0.068-0.125,0.209-0.723,0.061-0.82c1.204-0.906-1.041-1.078-1.131-0.461
							c-0.009,0.084,0.052,0.098,0.115,0.09c-0.444,0.162-1.061,0.775-0.542,0.768
							C1000.888,284.438,1003.561,284.648,1004.033,283.83z"/>
						<path fill="#FFF4DE" d="M1019.715,273.264c0-0.004,0.303,0.164,0.358,0.254c-0.599-0.078-0.614,0.004-1.041,0.273
							c0.114-0.926-0.627,0.119-0.763,0.33c-0.171-0.482-0.407-0.266-0.419,0.078c-0.032,0.029-0.059,0.053-0.088,0.086
							c-0.057-0.197-0.175-0.266-0.287-0.045c0.001-0.063,0.057-0.209,0.015-0.258c0.048,0.049-0.385,0.018-0.473,0.006
							c0.214,0.031-1.096,0.736-0.884,0.631c-0.014,0.063-0.014,0.119,0,0.184c0.093,0.123,0.775-0.27,0.952-0.289
							c-0.002,0.865-1.73,1.502-1.869,1.85c-0.234,0.582-1.258,0.584-1.354,0.756c-0.133,0.252,0.118,0.201-0.016,0.428
							c-0.277-0.199-0.865,0.256-1.256,0.25c-0.535-0.02,0.318,1.891,0.346,1.914c-0.755,0.873,1.772,0.82,2.093-0.096
							c0.079,0.289,1.188,1.938,0.808,1.926c-0.755-0.025-0.365,0.563-0.364,0.795c-0.099-0.004-0.192,0.037-0.274,0.117
							c-0.057,0.381,1.197-0.023,0.561-0.223c0.354-0.303,0.801-0.188,1.233-0.482c-0.214,0.086,1.694-0.738,1.069-0.76
							c-0.082,0-0.182,0.127-0.2,0.182c-0.072-0.703,1.386-1.709,1.014-1.945c-0.471-0.195-1.098-0.592-0.571-1.139
							c0.101-0.072,1.521-0.984,1.589-1.148c0.19-0.422-0.089-0.746,0.778-0.852c0.118-0.014,1.15,0.318,0.88,0.449
							c-1.052-0.033-2.58,2.68-1.151,2.645c0.795,0.025,2.411,0.156,3.44,0.314c-0.659,0.143-3.554,0.127-3.651,0.906
							c0.006-0.049,0.166,0.326,0.137,0.316c0.236-0.189,0.538-0.111,0.586-0.459c0.154,0.09,0.396,0.355,0.539,0.209
							c-0.326,1.434-1.558-0.461-1.508,1.678c0.023,1.02-3.301,0.135-3.322,0.85c0.063-0.895-1.118,0.139-1.515-0.09
							c0.339-0.229,0.074-0.018,0.124-0.318c-1.189-0.107-0.021-1.963-0.224-1.969c-1.544-0.045-0.911,1.83-0.938,1.854
							c0.026,0.158,0.046,0.221,0.076,0.391c-0.038-0.332-2.304,0.998-2.588,1.361c-0.262,0.361-1.586,0.99-1.912,1.225
							c-0.501,0.432-0.499-0.119-0.993-0.135c-0.022,0.012-0.042,0.029-0.061,0.049c-0.252,0.164,0.583,0.719-0.216,0.695
							c-0.23-0.006-1.204-0.254-1.34,0.053c-0.08,0.285,1.38,0.955,1.563,1.436c0.316,0.148,0.045,1.854-0.344,1.85
							c-0.575-0.02-1.136-0.117-1.757-0.139c-1.338-0.039-1.647-0.354-1.992,0.826c-0.167,0.693-0.385,1.555-0.489,2.258
							c0.221,0.385,0.393,0.643,0.084,1.201c1.23-0.588,1.311,0.818,2.241,0.375c0.835-0.496,2.628-0.137,2.897-1.408
							c0.011-0.082-0.252-0.248-0.29-0.361c-0.149-0.457,0.766-0.543,0.659-0.975c-0.016-0.049,1.06-0.551,1.186-0.596
							c0.236-0.078,0.076-0.797,0.467-1.023c0.254-0.168,0.871,0.189,1.166,0.197c1.081,0.035,2.084-1.457,2.034,0.25
							c-0.012,0.336,0.41-0.029,0.343-0.033c0.428,0.016,2.852,2.107,2.832,2.684c-0.251,0.77-1.745,0.15-1.859,0.375
							c-0.402,0.322,0.533,0.762,0.762,0.773c1.041,0.027,0.037,0.086,0.789-0.623c0.111,0.391,0.805-0.436,0.857-0.5
							c0.235-0.412-0.438-0.521-0.27-0.729c0.453-0.707,0.354,0.148,0.861,0.16c0.797,0.029-1.302-1.404-1.193-1.221
							c-0.41,0.133-1.632-1.83-1.762-2.23c-0.234-0.805,0.951,0.266,1.109,0.15c0.58,0.34,0.549,1.197,1.453,1.262
							c0.587,0.049,1.539,1.598,1.28,1.965c-0.022,0.074-0.162-0.131-0.167,0.057c-0.018,0.578,2.45,1.547,2.474,1.518
							c0.095-0.092-0.1-0.344-0.138-0.432c0.078,0.043,0.376,0.324,0.448,0.096c-0.018,0.072-1.474-1.588-1.195-1.578
							c0.21,0.004,2.095-0.563,2.127,0.078c0.065,0.77-0.793,0.857,0.112,0.557c-0.013,0.266-0.455,0.934-0.493,0.887
							c0.134,0.16,0.214-0.127,0.247-0.143c0.199,0.176,0.121,0.281,0.504,0.297c0.002,0.043,0.002,0.082-0.006,0.129
							c-0.056-0.025-0.217-0.164-0.269-0.078c-0.11,0.139,0.327,0.42,0.427,0.465c-0.126-0.004-0.305,0.436-0.358,0.498
							c0.318-0.256,0.333-0.256,0.635-0.355c-0.002,0.041-0.28,0.195-0.322,0.229c0.156,0.135,0.172-0.086,0.341-0.021
							c-0.026,0.148-0.375,0.436-0.139,0.535c0.278,0.066,0.311-0.492,0.455-0.586c-0.009,0.236,0.216,0.143,0.292,0.084
							c-0.019,0.707,1.107,0.131,1.536,0.164c0.303,0.09,2.097,0.318,2.111-0.172c0.047,0.025,0.092,0.049,0.134,0.082
							c0.038,0.041-0.188,1.727-0.23,1.844c-0.583,1.047-0.28,1.316-1.358,1.744c0.089-0.035-1.604-0.129-1.56-0.129
							c-0.679-0.021-1.479,0.158-2.272-0.279c-0.297-0.143-1.917-1.004-2.121-0.986c-1.316,0.166-1.058,2.098-2.129,1.371
							c-1.385-0.127-2.752-1.973-4.021-2.014c-0.613-0.018,0.496-1.813,0.248-2.201c-0.104-0.219-2.922-0.211-3.238,0.271
							c-0.733-0.463-2.89-0.119-3.529,0.563c-0.189,0.248-1.317,0.248-1.695,0.145c-1.482-0.396-0.423,0.379-1.857,0.961
							c-1.449,0.602-0.941,1.646-1.604,2.594c-0.515,0.711-1.66,0.764-1.975,1.521c-0.09,0.209-2.828,4.086-2.348,4.23
							c0.236,0.191,0.797,1.52,0.272,2.344c-0.265,0.471-0.779,1.459-0.452,1.865c0.031,0.037-0.072,1.508,0.092,1.303
							c0.526,0.461,1.016,0.918,1.557,1.479c0.357,0.588,0.49,2.105,1.489,2.285c0.575,0.088,1.176,1.525,1.807,1.545
							c0.745,0.02,1.43-0.58,2.272-0.559c1.32,0.379,1.867-0.063,3.022-0.439c0.56-0.186,1.048-0.193,1.63-0.18
							c0.329,0.01,1.027,1.848,1.37,1.41c0.313-0.584,1.612,0.281,1.708,0.244c0.171,0.877-0.115,1.742-0.233,2.406
							c-0.251,1.355,0.344,1.764,1.228,3.189c0.669,1.154,1.708,4.428,0.473,5.563c-0.697,0.59-0.313,2.137-0.651,2.863
							c-0.252,0.586,1.807,3.18,1.422,3.543c-0.267,0.242,0.171,2.773,0.423,3.119c0.835,1.17,1.35,2.355,1.067,3.447
							c0.006-0.066,0.577,0.975,0.337,0.967c0.212,0.008,0.677,0.424,0.931,0.309c0.374-0.166,1.001-0.451,1.442-0.406
							c1.115,0.492,2.497-0.15,3.41-0.992c0.57-0.52,2.087-1.898,2.293-2.641c0.133-0.508,0.15-1.844,0.724-1.965
							c1.853-0.473,1.105-2.104,0.899-3.533c0.33,0.211,4.173-3.078,3.683-3.424c-0.303-0.326,0.008-1.52-0.076-1.967
							c0.034-0.533-0.446-0.947-0.381-1.336c0.046-0.322-0.021-1.566-0.147-1.748c-0.794-1.109,1.409-3.34,2.156-4.119
							c1.791-1.932,4.635-4.314,5.099-6.766c0.274-1.326-0.841-0.914-1.731-0.705c-0.607,0.186-1.305,0.195-1.819,0.432
							c-0.683,0.314-0.881-0.574-1.512-0.592c1.372-0.158-2.003-3.029-1.98-3.451c0.022-0.771-1.044-1.102-1.014-1.648
							c0.046-0.334-0.03-1.131-0.187-1.469c-0.326-0.807-0.854-1.033-0.732-1.68c0.202-0.963-2.155-2.768-1.963-3.895
							c0.183,0.303,0.574,1.4,0.995,1.41c0.145,0.004,0.265-0.762,0.295-0.947c0.006,0.084-0.135,0.791-0.141,0.775
							c0.238,0.455,1.206,1.691,1.58,2.27c0.479,0.844,0.892,1.906,1.41,2.715c0.265,0.514,1.182,2.016,1.578,2.367
							c0.667,0.58,0.052,2.322,0.808,2.818c0.752,0.4,3.793-1.357,4.613-1.654c0.514-0.285,0.621-0.98,1.627-0.947
							c0.292,0.008,0.915-1.086,1.105-1.154c0.907-0.301,0.054-0.842,0.668-1.162c0.061-0.021,1.08-0.582,1.07-1.15
							c-0.008,0.186-2.438-2.131-2.355-2.486c-0.379,0.311-2.165,2.082-2.301,1.191c-0.017-0.068-0.238-0.799-0.192-0.74
							c-0.141-0.174-0.194-0.293-0.212-0.369c-0.032,0.072-0.112,0.184-0.303,0.326c0.111-0.02-1.124-1.662-1.17-1.801
							c-0.492-1.424-0.244-0.607,0.453-1.52c0.519,0.773,2.12,3.406,3.32,2.33c0.004,0.031,0.01,0.279,0.064,0.283
							c0.144,0.002,0.436-0.283,0.304-0.422c0.181,0.006,0.417,0.164,0.463,0.354c0.234,0.857,0.415,0.465,1.037,0.719
							c0.169,0.074,0.347,0.131,0.53,0.176c-2.657-12.486-10.732-23.027-21.715-28.965
							C1019.953,273.182,1019.727,273.207,1019.715,273.264z"/>
						<path fill="#FFF4DE" d="M1036.82,326.385c-0.051-0.111-0.173-1.908-0.449-1.912c-0.348-0.016-0.206,0.498-0.292,0.625
							c-0.206,0.619-0.141,0.094-0.377,0.086c-0.114-0.004-0.008,0.262-0.029,0.334c-0.146-0.184-0.391,0.564-0.23,0.617
							c-0.103,0-0.114,0.057-0.15,0.143c-0.082-0.168-0.825,0.438-0.759,0.584c-0.135,0.027-1.242,0.053-1.189-0.033
							c-0.373,0.539,0.204,2.055-0.146,2.738c-0.354,0.777-0.972,2.252-0.164,2.99c1.458,1.879,3.805-5.797,3.389-5.807
							c0.115,0.004,0.088,0.275,0.2,0.275c0.271,0.01,0.284-0.49,0.2-0.637C1036.796,326.342,1036.813,326.363,1036.82,326.385z"/>
					</g>
				</g>
				<g>
					<path fill="#F0B687" d="M926.333,306.938c0.571,3.611-0.421,10.822-0.421,10.822l1.578,10.012l6.465,10.803l6.996,6.047
						l-4.271,25.496c-3.688-7.313-17.369-26.674-20.028-36.703c-1.168-4.418-0.393-17.492-0.393-17.492s1.359-10.277,3.616-12.969
						C921.021,301.59,925.41,301.082,926.333,306.938z"/>
					<path fill="#F0B687" d="M931.252,304.758c1.147-1.357,5.539-1.867,6.457,3.986c0.572,3.611-0.426,10.824-0.426,10.824
						l1.574,10.012l0.316,0.535l0.099-4.252c0,0,1.18-8.904,3.134-11.234c0.994-1.176,4.799-1.613,5.596,3.455
						c0.493,3.125-0.372,9.373-0.372,9.373l1.364,8.68l5.599,9.355c0,0,0.595,0.553,1.599,1.48
						c3.547,7.02,13.268,13.477,17.895,17.111c2.825,2.221,5.998,4.672,8.639,7.41l-14.203,23.061l-31.841-24.438l1.692-12.084
						c-3.372-6.826-11.143-22.025-11.143-22.025l0.4-18.285C927.631,317.723,928.996,307.451,931.252,304.758z"/>
					<path fill="#F0B687" d="M954.223,345.25c-1.975-0.748-3.903-1.695-5.886-2.414l-0.297-2.555c0,0-0.05-7.869,1.37-10.133
						c0.719-1.141,3.97-1.98,5.27,2.326c0.805,2.654,2.569,13.996,2.569,13.996C956.053,345.957,955,345.545,954.223,345.25z"/>
					<path fill="#F0B687" d="M986.742,380.867c0.571,1.584,8.279-1.898,7.979-2.838c-2.006-6.254-5.192-11.941-10.598-16.607
						c-6.595-5.699-17.95-7.809-24.678-13.164c-3.732-2.967-6.66-6.52-9.701-10.166c-2.116-2.531-3.618-4.898-6.969-5.555
						c-1.522-0.299-3.232,1.084-2.98,2.701c0.533,3.471,2.938,5.455,5.119,8.119c2.277,2.787,4.566,5.719,7.281,8.107
						c6.087,5.365,13.813,8.021,20.26,12.834C978.257,368.631,984.211,373.875,986.742,380.867z"/>
					<path fill="#FFC89F" d="M964.188,438.166h31.852v-50.965c0,0-0.026-7.109-1.717-10.285c-1.455-2.723-4.146-5.938-8.625-8.781
						c-9.907-6.297-38.374-10.66-38.374-10.66s-5.239-9.184-6.589-12.176c-4.516-10.066-8.973-11.129-12.128-9.777
						c-2.8,1.199-4.501,5.191-2.496,10.145c1.458,3.613,4.151,9.738,4.151,9.738l0.003-0.004l6.271,14.588
						c7.217,10.006,16.998,13.873,27.096,20.709C964.158,391.055,964.256,428.797,964.188,438.166z"/>
					<path opacity="0.5" fill="#EDF0F2" d="M927.909,345.967c0,0-3.647-7.725,1.418-9.561c3.751-1.359,7.913,4.924,7.757,5.16
						S927.909,345.967,927.909,345.967z"/>
				</g>
				<g>
					<path fill="#F0B687" d="M1073.664,306.938c-0.567,3.611,0.426,10.822,0.426,10.822l-1.576,10.012l-6.467,10.803l-6.997,6.047
						l4.271,25.496c3.688-7.313,17.369-26.674,20.026-36.703c1.172-4.418,0.395-17.492,0.395-17.492s-1.36-10.277-3.616-12.969
						C1078.979,301.59,1074.589,301.082,1073.664,306.938z"/>
					<path fill="#F0B687" d="M1068.749,304.758c-1.146-1.357-5.539-1.867-6.456,3.986c-0.571,3.611,0.426,10.824,0.426,10.824
						l-1.572,10.012l-0.322,0.535l-0.094-4.252c0,0-1.182-8.904-3.135-11.234c-0.993-1.176-4.802-1.613-5.598,3.455
						c-0.492,3.125,0.373,9.373,0.373,9.373l-1.364,8.68l-5.601,9.355c0,0-0.59,0.553-1.597,1.48
						c-3.547,7.02-13.266,13.477-17.896,17.111c-2.823,2.221-5.996,4.672-8.64,7.41l14.209,23.061l31.838-24.438l-1.693-12.084
						c3.373-6.826,11.146-22.025,11.146-22.025l-0.404-18.285C1072.368,317.723,1071.008,307.451,1068.749,304.758z"/>
					<path fill="#F0B687" d="M1045.776,345.25c1.979-0.748,3.903-1.695,5.886-2.414l0.299-2.555c0,0,0.052-7.869-1.37-10.133
						c-0.718-1.141-3.97-1.98-5.271,2.326c-0.805,2.654-2.567,13.996-2.567,13.996
						C1043.951,345.957,1045.003,345.545,1045.776,345.25z"/>
					<path fill="#F0B687" d="M1013.258,380.867c-0.572,1.584-8.279-1.898-7.979-2.838c2.005-6.254,5.191-11.941,10.597-16.607
						c6.599-5.699,17.952-7.809,24.679-13.164c3.731-2.967,6.663-6.52,9.705-10.166c2.115-2.531,3.617-4.898,6.964-5.555
						c1.524-0.299,3.232,1.084,2.985,2.701c-0.534,3.471-2.943,5.455-5.12,8.119c-2.279,2.787-4.568,5.719-7.282,8.107
						c-6.09,5.365-13.813,8.021-20.261,12.834C1021.746,368.631,1015.792,373.875,1013.258,380.867z"/>
					<path fill="#FFC89F" d="M1035.814,438.166h-31.856v-50.965c0,0,0.032-7.109,1.724-10.285c1.45-2.723,4.141-5.938,8.618-8.781
						c9.911-6.297,38.378-10.66,38.378-10.66s5.24-9.184,6.586-12.176c4.517-10.066,8.975-11.129,12.133-9.777
						c2.796,1.199,4.502,5.191,2.496,10.145c-1.459,3.613-4.154,9.738-4.154,9.738V355.4l-6.274,14.588
						c-7.212,10.006-16.995,13.873-27.095,20.709C1035.843,391.055,1035.746,428.797,1035.814,438.166z"/>
					<path opacity="0.5" fill="#EDF0F2" d="M1072.094,345.967c0,0,3.648-7.725-1.422-9.561c-3.747-1.359-7.913,4.924-7.755,5.16
						C1063.073,341.803,1072.094,345.967,1072.094,345.967z"/>
				</g>
			</g>
		</g>
	</g>
</g>
</svg>
