<?xml version="1.0" encoding="utf-8"?>
<!-- Generator: Adobe Illustrator 16.0.0, SVG Export Plug-In . SVG Version: 6.00 Build 0)  -->
<!DOCTYPE svg PUBLIC "-//W3C//DTD SVG 1.1//EN" "http://www.w3.org/Graphics/SVG/1.1/DTD/svg11.dtd">
<svg version="1.1" xmlns="http://www.w3.org/2000/svg" xmlns:xlink="http://www.w3.org/1999/xlink" x="0px" y="0px" width="2000px"
	 height="670px" viewBox="0 0 2000 670" enable-background="new 0 0 2000 670" xml:space="preserve">
<g id="Layer_5">
	<rect x="-14.342" y="-0.264" display="none" fill="#009444" width="2023.398" height="701"/>
	<path id="XMLID_61_" fill="#FFFFFF" d="M1227.734,415.648c-0.193-0.6-0.713-1.037-1.338-1.128l-6.19-0.899l-2.769-5.608
		c-0.279-0.566-0.855-0.925-1.486-0.925s-1.207,0.358-1.486,0.925l-2.77,5.608l-6.189,0.899c-0.623,0.091-1.144,0.527-1.338,1.128
		c-0.195,0.601-0.033,1.26,0.419,1.699l4.479,4.367l-1.058,6.164c-0.106,0.622,0.148,1.251,0.66,1.622
		c0.51,0.37,1.187,0.419,1.745,0.126l5.537-2.911l5.536,2.911c0.243,0.127,0.508,0.19,0.772,0.19c0.342,0,0.686-0.106,0.975-0.316
		c0.51-0.371,0.766-1,0.658-1.622l-1.058-6.164l4.48-4.367C1227.768,416.908,1227.931,416.25,1227.734,415.648z"/>
	<g id="XMLID_87_" opacity="0.2">
		<path id="XMLID_113_" fill="#329AA5" d="M1014.904,404.531c-0.066,0-0.135-0.011-0.2-0.03c-0.208-0.066-0.371-0.231-0.435-0.441
			l-39.896-131.875c-0.076-0.252,0.004-0.526,0.206-0.697s0.485-0.204,0.723-0.088l127.448,63.178
			c0.204,0.101,0.342,0.299,0.365,0.524c0.023,0.227-0.072,0.449-0.251,0.59l-87.551,68.698
			C1015.195,404.482,1015.05,404.531,1014.904,404.531z M976.085,273.267l39.173,129.483l85.963-67.453L976.085,273.267z"/>
		<path id="XMLID_112_" fill="#329AA5" d="M985.258,489.714c-0.161,0-0.32-0.058-0.444-0.17c-0.198-0.179-0.27-0.458-0.182-0.71
			l29.646-85.183c0.042-0.12,0.116-0.226,0.216-0.304l87.553-68.699c0.206-0.162,0.488-0.188,0.721-0.063
			c0.23,0.124,0.368,0.372,0.349,0.634l-7.448,102.652c-0.017,0.239-0.163,0.45-0.38,0.552l-109.75,51.23
			C985.447,489.694,985.353,489.714,985.258,489.714z M1015.466,404.27l-29.067,83.52l107.977-50.402l7.312-100.771L1015.466,404.27
			z"/>
		<path id="XMLID_111_" fill="#329AA5" d="M1014.904,404.531c-0.017,0-0.032-0.001-0.049-0.001l-222.192-16.348
			c-0.285-0.021-0.525-0.223-0.594-0.501c-0.07-0.277,0.046-0.567,0.288-0.72l182.295-115.528c0.176-0.111,0.392-0.133,0.586-0.062
			c0.194,0.072,0.344,0.231,0.402,0.43l39.897,131.875c0.063,0.209,0.02,0.436-0.117,0.605
			C1015.295,404.44,1015.104,404.531,1014.904,404.531z M794.76,387.008l219.23,16.129L974.625,273.02L794.76,387.008z"/>
		<path id="XMLID_110_" fill="#329AA5" d="M820.471,567.734c-0.22,0-0.433-0.109-0.558-0.305c-0.18-0.28-0.124-0.651,0.132-0.865
			l194.433-163.203c0.229-0.192,0.558-0.208,0.802-0.038c0.246,0.169,0.348,0.481,0.25,0.763l-29.646,85.185
			c-0.058,0.167-0.182,0.305-0.342,0.381L820.754,567.67C820.663,567.714,820.566,567.734,820.471,567.734z M1013.487,405.923
			L824.838,564.271l159.885-75.699L1013.487,405.923z"/>
		<path id="XMLID_109_" fill="#329AA5" d="M820.47,567.734c-0.077,0-0.156-0.015-0.232-0.043c-0.224-0.084-0.385-0.282-0.422-0.519
			l-27.759-179.551c-0.031-0.199,0.031-0.402,0.168-0.55c0.137-0.148,0.332-0.227,0.535-0.213l222.192,16.348
			c0.27,0.021,0.499,0.201,0.583,0.458c0.082,0.257,0.002,0.537-0.205,0.711L820.896,567.579
			C820.774,567.681,820.624,567.734,820.47,567.734z M793.493,388.243l27.452,177.564l192.283-161.397L793.493,388.243z"/>
		<path id="XMLID_108_" fill="#329AA5" d="M1018.559,627.643c-0.017,0-0.033-0.001-0.049-0.002
			c-0.288-0.021-0.528-0.226-0.596-0.506l-33.301-137.927c-0.073-0.307,0.078-0.623,0.364-0.757l109.75-51.229
			c0.246-0.114,0.538-0.067,0.736,0.12c0.197,0.187,0.261,0.476,0.158,0.729l-76.449,189.156
			C1019.07,627.479,1018.826,627.643,1018.559,627.643z M986.028,489.424l32.689,135.393l75.044-185.682L986.028,489.424z"/>
		<path id="XMLID_107_" fill="#329AA5" d="M1018.558,627.643c-0.063,0-0.128-0.01-0.191-0.028l-198.087-59.908
			c-0.263-0.079-0.449-0.313-0.469-0.585c-0.021-0.273,0.129-0.531,0.376-0.648l164.787-78.02c0.181-0.085,0.39-0.084,0.569,0.001
			c0.18,0.086,0.312,0.248,0.358,0.442l33.3,137.928c0.057,0.231-0.016,0.474-0.188,0.637
			C1018.888,627.579,1018.725,627.643,1018.558,627.643z M822.307,566.935l195.336,59.076L984.805,490L822.307,566.935z"/>
		<path id="XMLID_106_" fill="#329AA5" d="M1018.558,627.643c-0.163,0-0.325-0.062-0.45-0.177c-0.201-0.188-0.267-0.479-0.164-0.734
			l76.449-189.157c0.105-0.259,0.366-0.418,0.64-0.414c0.278,0.011,0.521,0.194,0.606,0.461l41.854,130.691
			c0.101,0.313-0.043,0.65-0.336,0.796l-118.305,58.465C1018.758,627.619,1018.658,627.643,1018.558,627.643z M1094.936,439.77
			l-75.111,185.846l116.232-57.442L1094.936,439.77z"/>
		<path id="XMLID_105_" fill="#329AA5" d="M1095.008,438.485c-0.149,0-0.297-0.051-0.416-0.147
			c-0.169-0.136-0.261-0.347-0.244-0.563l7.447-102.653c0.014-0.184,0.104-0.355,0.248-0.47c0.145-0.116,0.334-0.167,0.513-0.137
			l131.278,20.176c0.255,0.038,0.464,0.223,0.535,0.47c0.072,0.248-0.006,0.515-0.201,0.685l-72.413,63.038
			c-0.071,0.063-0.157,0.11-0.249,0.137l-66.313,19.438C1095.133,438.477,1095.069,438.485,1095.008,438.485z M1103.064,335.934
			l-7.326,100.985l65.257-19.129l71.226-62.006L1103.064,335.934z"/>
		<path id="XMLID_115_" fill="#329AA5" d="M1136.862,569.178c-0.068,0-0.137-0.011-0.203-0.032c-0.201-0.064-0.36-0.223-0.427-0.423
			l-26.935-81.429c-0.065-0.199-0.034-0.418,0.087-0.589c0.12-0.172,0.314-0.275,0.524-0.282l143.825-3.781c0.007,0,0.013,0,0.018,0
			c0.283,0,0.536,0.18,0.627,0.449c0.095,0.273-0.002,0.577-0.236,0.748l-116.891,85.212
			C1137.138,569.134,1137,569.178,1136.862,569.178z M1110.836,487.725l26.369,79.719l114.438-83.422L1110.836,487.725z"/>
		<path id="XMLID_116_" fill="#329AA5" d="M1253.752,483.966c-0.133,0-0.267-0.039-0.381-0.12l-92.432-64.919
			c-0.166-0.117-0.271-0.305-0.28-0.508c-0.011-0.204,0.072-0.399,0.227-0.534l72.413-63.038c0.182-0.159,0.436-0.206,0.662-0.123
			s0.391,0.282,0.427,0.52l20.019,127.958c0.042,0.263-0.078,0.524-0.305,0.665C1253.995,483.933,1253.873,483.966,1253.752,483.966
			z M1162.394,418.328l90.464,63.537l-19.594-125.232L1162.394,418.328z"/>
		<circle id="XMLID_103_" fill="#329AA5" cx="1014.904" cy="403.868" r="4.639"/>
		<circle id="XMLID_102_" fill="#329AA5" cx="1102.456" cy="335.171" r="4.638"/>
		<path id="XMLID_101_" fill="#329AA5" d="M1098.811,435.17c1.469,2.101,0.952,4.991-1.148,6.457s-4.991,0.951-6.456-1.149
			c-1.468-2.101-0.953-4.992,1.147-6.458C1094.454,432.555,1097.346,433.068,1098.811,435.17z"/>
		<circle id="XMLID_100_" fill="#329AA5" cx="1161.319" cy="418.385" r="4.638"/>
		<circle id="XMLID_99_" fill="#329AA5" cx="1233.733" cy="355.345" r="4.639"/>
		<circle id="XMLID_98_" fill="#329AA5" cx="1253.752" cy="483.304" r="4.638"/>
		<circle id="XMLID_97_" fill="#329AA5" cx="1136.861" cy="568.516" r="4.638"/>
		<circle id="XMLID_96_" fill="#329AA5" cx="1110.768" cy="487.307" r="4.638"/>
		<circle id="XMLID_95_" fill="#329AA5" cx="1018.557" cy="626.979" r="4.639"/>
		<circle id="XMLID_94_" fill="#329AA5" cx="985.257" cy="489.052" r="4.638"/>
		<circle id="XMLID_93_" fill="#329AA5" cx="820.47" cy="567.071" r="4.638"/>
		<circle id="XMLID_90_" fill="#329AA5" cx="792.711" cy="387.521" r="4.637"/>
		<path id="XMLID_89_" fill="#329AA5" d="M978.81,269.34c1.467,2.1,0.952,4.991-1.147,6.457c-2.104,1.466-4.994,0.952-6.46-1.149
			c-1.464-2.101-0.95-4.991,1.15-6.457C974.453,266.724,977.345,267.238,978.81,269.34z"/>
	</g>
	<g id="XMLID_329_">
		
			<polygon id="XMLID_248_" fill="none" stroke="#FFFFFF" stroke-width="1.6907" stroke-linecap="round" stroke-linejoin="round" stroke-miterlimit="10" points="
			1100.104,331.251 972.656,268.074 1012.553,399.949 		"/>
		
			<polygon id="XMLID_247_" fill="none" stroke="#FFFFFF" stroke-width="1.6907" stroke-linecap="round" stroke-linejoin="round" stroke-miterlimit="10" points="
			1092.656,433.904 1100.104,331.251 1012.553,399.949 982.906,485.134 		"/>
		
			<polygon id="XMLID_246_" fill="none" stroke="#FFFFFF" stroke-width="1.6907" stroke-linecap="round" stroke-linejoin="round" stroke-miterlimit="10" points="
			972.656,268.074 790.36,383.603 1012.553,399.949 		"/>
		
			<polygon id="XMLID_245_" fill="none" stroke="#FFFFFF" stroke-width="1.6907" stroke-linecap="round" stroke-linejoin="round" stroke-miterlimit="10" points="
			982.906,485.134 818.119,563.152 1012.553,399.949 		"/>
		
			<polygon id="XMLID_244_" fill="none" stroke="#FFFFFF" stroke-width="1.6907" stroke-linecap="round" stroke-linejoin="round" stroke-miterlimit="10" points="
			790.36,383.603 818.119,563.152 1012.553,399.949 		"/>
		
			<polygon id="XMLID_242_" fill="none" stroke="#FFFFFF" stroke-width="1.6907" stroke-linecap="round" stroke-linejoin="round" stroke-miterlimit="10" points="
			1092.656,433.904 1016.207,623.061 982.906,485.134 		"/>
		
			<polygon id="XMLID_240_" fill="none" stroke="#FFFFFF" stroke-width="1.6907" stroke-linecap="round" stroke-linejoin="round" stroke-miterlimit="10" points="
			818.119,563.152 1016.207,623.061 982.906,485.134 		"/>
		
			<polygon id="XMLID_231_" fill="none" stroke="#FFFFFF" stroke-width="1.6907" stroke-linecap="round" stroke-linejoin="round" stroke-miterlimit="10" points="
			1092.656,433.904 1134.511,564.596 1016.207,623.061 		"/>
		
			<polygon id="XMLID_230_" fill="none" stroke="#FFFFFF" stroke-width="1.6907" stroke-linecap="round" stroke-linejoin="round" stroke-miterlimit="10" points="
			1100.104,331.251 1231.382,351.427 1158.969,414.467 1092.656,433.904 		"/>
		
			<polygon id="XMLID_226_" fill="none" stroke="#FFFFFF" stroke-width="1.6907" stroke-linecap="round" stroke-linejoin="round" stroke-miterlimit="10" points="
			1134.511,564.596 1251.401,479.385 1107.575,483.167 		"/>
		
			<polygon id="XMLID_225_" fill="none" stroke="#FFFFFF" stroke-width="1.6907" stroke-linecap="round" stroke-linejoin="round" stroke-miterlimit="10" points="
			1231.382,351.427 1251.401,479.385 1158.969,414.467 		"/>
		<circle id="XMLID_187_" fill="#FFFFFF" cx="1012.553" cy="399.95" r="4.639"/>
		<circle id="XMLID_186_" fill="#FFFFFF" cx="1100.104" cy="331.252" r="4.638"/>
		<path id="XMLID_183_" fill="#FFFFFF" d="M1096.459,431.251c1.469,2.101,0.953,4.991-1.148,6.457
			c-2.1,1.466-4.991,0.951-6.456-1.149c-1.468-2.1-0.953-4.992,1.147-6.457C1092.104,428.636,1094.994,429.149,1096.459,431.251z"/>
		<circle id="XMLID_180_" fill="#FFFFFF" cx="1158.968" cy="414.466" r="4.639"/>
		<circle id="XMLID_178_" fill="#FFFFFF" cx="1231.382" cy="351.427" r="4.639"/>
		<circle id="XMLID_176_" fill="#FFFFFF" cx="1251.4" cy="479.385" r="4.638"/>
		<circle id="XMLID_174_" fill="#FFFFFF" cx="1134.511" cy="564.597" r="4.638"/>
		<circle id="XMLID_173_" fill="#FFFFFF" cx="1108.416" cy="483.388" r="4.638"/>
		<circle id="XMLID_172_" fill="#FFFFFF" cx="1016.206" cy="623.061" r="4.638"/>
		<circle id="XMLID_168_" fill="#FFFFFF" cx="982.906" cy="485.133" r="4.638"/>
		<circle id="XMLID_154_" fill="#FFFFFF" cx="818.119" cy="563.152" r="4.638"/>
		<circle id="XMLID_147_" fill="#FFFFFF" cx="790.359" cy="383.602" r="4.637"/>
		<path id="XMLID_130_" fill="#FFFFFF" d="M976.459,265.421c1.466,2.1,0.952,4.991-1.148,6.457c-2.104,1.466-4.994,0.952-6.46-1.149
			c-1.464-2.101-0.95-4.991,1.15-6.457C972.102,262.805,974.994,263.319,976.459,265.421z"/>
	</g>
	<g id="XMLID_283_">
		<circle id="XMLID_333_" opacity="0.1" cx="792.865" cy="386.399" r="41.204"/>
		<g id="XMLID_260_">
			<circle id="XMLID_332_" fill="#FFFFFF" cx="792.865" cy="386.399" r="37.718"/>
			<g id="XMLID_261_">
				<defs>
					<circle id="XMLID_262_" cx="792.865" cy="386.399" r="37.718"/>
				</defs>
				<clipPath id="XMLID_5_">
					<use xlink:href="#XMLID_262_"  overflow="visible"/>
				</clipPath>
				<g id="XMLID_1012_" clip-path="url(#XMLID_5_)">
					<g id="XMLID_1013_">
						<linearGradient id="XMLID_7_" gradientUnits="userSpaceOnUse" x1="782.0625" y1="401.3057" x2="782.0625" y2="386.358">
							<stop  offset="0.1457" style="stop-color:#423A40"/>
							<stop  offset="1" style="stop-color:#665F72"/>
						</linearGradient>
						<path id="XMLID_1036_" fill="url(#XMLID_7_)" d="M780.843,363.053c-10.128,7.515-6.919,18.412-5.437,27.559
							c0.377,2.318,0.93,4.635,0.846,6.982c-0.083,2.349-0.915,4.806-2.793,6.217c2.502,0.385,5.162-0.447,6.998-2.189
							c-0.096,1.488-0.191,2.977-0.288,4.464c1.529-0.612,3.059-1.225,4.588-1.837c0.63,1.779,1.26,3.558,1.889,5.337
							c3.409-2.41,4.041-7.161,4.02-11.337c-0.06-10.957-2.564-21.895-7.281-31.784"/>
						
							<linearGradient id="XMLID_8_" gradientUnits="userSpaceOnUse" x1="37.7729" y1="401.3066" x2="37.7729" y2="386.3589" gradientTransform="matrix(-1 0 0 1 841.1328 0)">
							<stop  offset="0.1457" style="stop-color:#423A40"/>
							<stop  offset="1" style="stop-color:#665F72"/>
						</linearGradient>
						<path id="XMLID_1035_" fill="url(#XMLID_8_)" d="M804.58,363.053c10.127,7.515,6.918,18.412,5.436,27.559
							c-0.376,2.318-0.93,4.635-0.846,6.982c0.084,2.349,0.915,4.806,2.794,6.217c-2.502,0.385-5.162-0.447-6.999-2.189
							c0.097,1.488,0.192,2.977,0.287,4.464c-1.528-0.612-3.058-1.225-4.587-1.837c-0.63,1.779-1.26,3.558-1.89,5.337
							c-3.408-2.41-4.041-7.161-4.018-11.337c0.059-10.957,2.563-21.895,7.28-31.784"/>
						<path id="XMLID_1034_" fill="#F7D9B5" d="M820.792,417.362c-1.26-0.891-2.712-1.545-4.248-1.972l-1.619-0.43
							c0.011-0.003,0.022-0.006,0.033-0.01l-12.752-4.145c-1.028-0.276-1.599-1.116-1.782-2.057
							c-0.518-2.658-0.456-9.057-0.442-10.198c0.001-0.089-0.081-0.157-0.182-0.157h-0.61h-12.65h-0.609
							c-0.102,0-0.183,0.068-0.182,0.157c0.012,1.13,0.063,7.398-0.443,10.198c-0.17,0.941-0.754,1.78-1.781,2.057l-12.752,4.145
							c0.011,0.004,0.022,0.007,0.033,0.01l-1.659,0.441c-1.322,0.366-2.593,0.891-3.708,1.619c-5.832,3.815-6,10.057-6.241,11.219
							c-0.021,0.1,0.064,0.19,0.178,0.19h33.49h33.49c0.113,0,0.199-0.091,0.179-0.19
							C826.298,427.113,826.212,421.197,820.792,417.362z"/>
						<g id="XMLID_1016_">
							<g id="XMLID_1032_">
								<path id="XMLID_1033_" fill="#EFBC8B" d="M800.145,406.346c-0.061-2.979-0.17-5.777-0.163-6.534
									c0.001-0.112-0.081-0.197-0.182-0.197h-13.87c-0.102,0-0.183,0.086-0.182,0.197c0.007,0.755-0.111,3.567-0.175,6.556
									c0.991,1.033,4.666,2.501,7.133,2.518C795.276,408.902,799.076,407.163,800.145,406.346z"/>
							</g>
							<g id="XMLID_1029_">
								<path id="XMLID_1031_" fill="#F7D9B5" d="M779.771,384.842c0.978,2.632,0.421,6.747-1.243,7.541
									c-1.664,0.795-3.805-2.031-4.782-4.663c-0.977-2.633-0.42-5.409,1.244-6.204
									C776.652,380.722,778.794,382.211,779.771,384.842z"/>
								<path id="XMLID_1030_" fill="#F7D9B5" d="M805.958,384.842c-0.978,2.632-0.421,6.747,1.243,7.541
									c1.664,0.795,3.805-2.031,4.782-4.663c0.977-2.633,0.42-5.409-1.243-6.204C809.076,380.722,806.935,382.211,805.958,384.842
									z"/>
							</g>
							<path id="XMLID_1028_" fill="#F7D9B5" d="M792.711,361.505c-16.501-0.546-16.744,15.256-16.497,20.464
								c0.181,3.792,1.082,9.306,1.885,12.043c0.461,1.572,1.297,4.201,2.496,5.344c3.218,3.072,7.217,5.794,9.688,6.738
								c0.446,0.171,1.423,0.247,2.428,0.24c1.006,0.007,1.982-0.069,2.428-0.24c2.472-0.944,6.471-3.666,9.689-6.738
								c1.197-1.143,2.034-3.771,2.495-5.344c0.804-2.737,1.704-8.251,1.885-12.043
								C809.456,376.761,809.213,360.959,792.711,361.505z"/>
							<g id="XMLID_1025_">
								<path id="XMLID_1027_" fill="#332113" d="M784.522,381.115c1.281,0,2.319,0.979,2.319,2.186
									c0,1.208-1.038,2.186-2.319,2.186c-1.28,0-2.319-1.543-2.319-2.75S783.242,381.115,784.522,381.115z"/>
								<path id="XMLID_1026_" fill="#332113" d="M801.17,381.115c1.28,0,2.319,0.414,2.319,1.621s-1.039,2.75-2.319,2.75
									c-1.281,0-2.319-0.978-2.319-2.186C798.851,382.094,799.889,381.115,801.17,381.115z"/>
							</g>
							<g id="XMLID_1018_">
								<path id="XMLID_1024_" fill="#BFD8E3" d="M820.792,417.294c-1.26-0.892-2.712-1.546-4.248-1.972l-1.619-0.431
									c0.011-0.003,0.022-0.006,0.033-0.009l-11.464-3.727l-1.288-0.418c-0.32-0.087-0.591-0.232-0.825-0.414
									c-2.503,0.937-5.238,1.408-8.209,1.408c1.178,0,1.767,0,2.944,0.589c-4.295,0.477-9.363,1.34-12.071-1.798
									c-0.161,0.087-0.331,0.163-0.521,0.215l-1.289,0.418l-11.463,3.727c0.011,0.003,0.022,0.006,0.033,0.009l-1.659,0.442
									c-1.322,0.366-2.593,0.89-3.708,1.62c-5.832,3.813-6,10.057-6.241,11.218c-0.021,0.1,0.064,0.189,0.178,0.189h33.49h33.49
									c0.113,0,0.199-0.09,0.179-0.189C826.298,427.044,826.212,421.128,820.792,417.294z"/>
								<path id="XMLID_1023_" fill="#C94331" d="M790.241,417.678l-2.616-5.711h10.479l-2.617,5.711
									C794.322,419.697,791.408,419.697,790.241,417.678z"/>
								<path id="XMLID_1022_" fill="#C94331" d="M795.339,419.772l2.618,8.658h-10.48l2.616-8.658
									C791.26,417.753,794.173,417.753,795.339,419.772z"/>
								<g id="XMLID_1019_">
									<path id="XMLID_1021_" fill="#EAEAEA" d="M785.113,408.033l-2.622,1.799l5.622,8.426l5.214-6.423
										C793.327,411.835,785.499,409.832,785.113,408.033z"/>
									<path id="XMLID_1020_" fill="#EAEAEA" d="M800.626,408.033l2.623,1.799l-5.623,8.426l-5.214-6.423
										C792.412,411.835,800.24,409.832,800.626,408.033z"/>
								</g>
							</g>
							
								<path id="XMLID_1017_" fill="none" stroke="#D6925F" stroke-width="0.9656" stroke-linecap="round" stroke-linejoin="round" stroke-miterlimit="10" d="
								M788.463,395.328c0.732,1.041,2.357,1.767,4.248,1.767c1.892,0,3.516-0.726,4.248-1.767"/>
						</g>
						<linearGradient id="XMLID_9_" gradientUnits="userSpaceOnUse" x1="805.9385" y1="359.2217" x2="805.9385" y2="373.8466">
							<stop  offset="0.1457" style="stop-color:#423A40"/>
							<stop  offset="1" style="stop-color:#665F72"/>
						</linearGradient>
						<path id="XMLID_1015_" fill="url(#XMLID_9_)" d="M807.574,388.955c0.314-5.393-1.228-10.876-4.307-15.314
							c-0.819-1.183-1.753-2.308-2.318-3.632c-0.564-1.324-0.705-2.932,0.06-4.15c3.964-6.31,8.926,1.529,9.767,5.101
							C812.215,377.068,811.152,383.754,807.574,388.955z"/>
						<linearGradient id="XMLID_10_" gradientUnits="userSpaceOnUse" x1="789.5898" y1="359.2217" x2="789.5898" y2="373.8466">
							<stop  offset="0.1457" style="stop-color:#423A40"/>
							<stop  offset="1" style="stop-color:#665F72"/>
						</linearGradient>
						<path id="XMLID_1014_" fill="url(#XMLID_10_)" d="M801.181,359.324c-2.647-1.522-5.967-1.861-9.087-1.513
							c-5.043,0.563-9.817,2.869-13.12,6.335s-5.1,8.058-4.937,12.616c0.516-0.451,1.047-0.891,1.592-1.318
							c-0.16,4.758,0.975,9.563,3.415,13.511c-0.283-5.393,0.677-10.876,3.44-15.314c0.661-1.061,1.828-2.076,2.34-3.23
							c0.33-0.105-1.914,3.23-1.893,7.92c-0.002-0.49,5.171-3.551,5.837-4.121c1.521-1.304,2.94-2.729,4.24-4.255
							c-0.699,1.126-1.317,2.31-1.864,3.491c-0.349,0.755-1.545,5.654-2.033,5.86c3.687-1.554,15.495-7.557,16.01-12.816
							C805.396,363.673,803.827,360.846,801.181,359.324z"/>
					</g>
				</g>
			</g>
		</g>
	</g>
	<g id="XMLID_284_">
		<circle id="XMLID_594_" opacity="0.1" cx="824.312" cy="556.392" r="53.076"/>
		<g id="XMLID_285_">
			<circle id="XMLID_593_" fill="#FFFFFF" cx="824.311" cy="556.392" r="48.586"/>
		</g>
		<g id="XMLID_288_">
			<defs>
				<circle id="XMLID_289_" cx="824.311" cy="556.392" r="48.586"/>
			</defs>
			<clipPath id="XMLID_11_">
				<use xlink:href="#XMLID_289_"  overflow="visible"/>
			</clipPath>
			<g id="XMLID_290_" clip-path="url(#XMLID_11_)">
				<g id="XMLID_613_">
					<g id="XMLID_893_">
						<path id="XMLID_896_" fill="#F9D5B4" d="M808.215,551.574c1.225,2.909,0.526,7.457-1.559,8.336
							c-2.087,0.878-4.771-2.247-5.996-5.156c-1.225-2.909-0.526-5.979,1.56-6.857C804.305,547.018,806.99,548.664,808.215,551.574z
							"/>
						<path id="XMLID_895_" fill="#F9D5B4" d="M841.044,551.574c-1.225,2.909-0.526,7.457,1.56,8.336
							c2.085,0.878,4.77-2.247,5.995-5.156c1.225-2.909,0.526-5.979-1.56-6.857C844.954,547.018,842.27,548.664,841.044,551.574z"/>
					</g>
					<path id="XMLID_892_" fill="#F9D5B4" d="M853.715,591.96c-1.355-1.079-2.919-1.871-4.573-2.387l-15.433-4.813l0,0
						c-1.105-0.334-1.721-1.352-1.917-2.489c-0.558-3.221-0.491-11.706-0.477-13.087c0-0.109-0.087-0.192-0.195-0.192h-13.616
						c-0.109,0-0.197,0.083-0.196,0.192c0.014,1.367,0.068,9.696-0.477,13.087c-0.184,1.14-0.812,2.155-1.918,2.489l0,0
						l-15.475,4.826c-1.424,0.443-2.791,1.077-3.992,1.962c-6.277,4.618-6.457,12.177-6.718,13.583
						c-0.022,0.12,0.07,0.229,0.191,0.229h35.391h35.391c0.123,0,0.216-0.109,0.193-0.229
						C859.642,603.767,859.549,596.604,853.715,591.96z"/>
					<g id="XMLID_887_">
						<path id="XMLID_891_" fill="#F9D5B4" d="M813.814,597.499c5.945,1.718,9.157,4.663,10.807,6.829
							c1.645-2.168,4.857-5.127,10.823-6.851c7.425-2.145,9.544-6.683,10.147-9.012l-11.883-3.705
							c-1.105-0.335-1.721-1.352-1.917-2.489c-0.558-3.221-0.491-11.706-0.477-13.087c0-0.109-0.087-0.192-0.195-0.192h-13.616
							c-0.109,0-0.197,0.083-0.196,0.192c0.014,1.367,0.068,9.696-0.477,13.087c-0.184,1.14-0.812,2.154-1.918,2.489l-11.297,3.523
							C804.147,590.54,806.163,595.29,813.814,597.499z"/>
						<path id="XMLID_890_" fill="#588193" d="M853.715,591.96c-1.355-1.079-2.919-1.871-4.573-2.387l-1.321-0.412v16.044h-23.191
							h-23.189v-16.242l-2.001,0.624c-1.424,0.443-2.791,1.077-3.992,1.962c-6.277,4.618-6.457,12.177-6.718,13.583
							c-0.022,0.12,0.07,0.229,0.191,0.229h35.391h35.391c0.123,0,0.216-0.109,0.193-0.229
							C859.642,603.767,859.549,596.604,853.715,591.96z"/>
						<path id="XMLID_889_" fill="#F94831" d="M803.604,588.23l-2.164,0.675v0.058l2.177-0.679
							C803.612,588.267,803.607,588.248,803.604,588.23z"/>
						<path id="XMLID_888_" fill="#588193" d="M824.629,605.205h23.191v-16.044l-2.229-0.695c-0.604,2.329-2.723,6.867-10.147,9.012
							c-5.966,1.724-9.179,4.683-10.823,6.851c-1.649-2.166-4.861-5.111-10.807-6.829c-7.651-2.209-9.667-6.959-10.198-9.215
							l-2.177,0.679v16.242H824.629z"/>
					</g>
					<g id="XMLID_885_">
						<path id="XMLID_886_" fill="#F2B78B" d="M831.352,576.311c-0.066-2.898-0.045-5.651-0.036-6.388
							c0-0.108-0.087-0.191-0.195-0.191h-13.616c-0.109,0-0.197,0.083-0.196,0.191c0.008,0.734,0.026,3.479-0.042,6.386
							C821.818,577.867,826.796,577.869,831.352,576.311z"/>
					</g>
					<path id="XMLID_884_" fill="#F9D5B4" d="M824.311,522.842c-20.883-0.817-21.186,19.104-20.874,25.653
						c0.227,4.755,2.095,11.667,3.102,15.099c0.579,1.971,1.628,3.789,3.129,5.223c5.451,5.201,14.644,6.969,14.644,6.969
						s9.194-1.768,14.646-6.969c1.502-1.434,2.551-3.252,3.129-5.223c1.007-3.432,2.875-10.344,3.101-15.099
						C845.486,542.178,851.116,521.791,824.311,522.842z"/>
					<g id="XMLID_877_">
						<circle id="XMLID_881_" fill="#ED9D85" cx="811.265" cy="557.854" r="3.025"/>
						<circle id="XMLID_878_" fill="#ED9D85" cx="837.993" cy="557.854" r="3.024"/>
					</g>
					<g id="XMLID_813_">
						<g id="XMLID_874_">
							<ellipse id="XMLID_876_" fill="#332113" cx="814.137" cy="550.033" rx="2.718" ry="3.202"/>
							<ellipse id="XMLID_875_" fill="#332113" cx="835.123" cy="550.033" rx="2.717" ry="3.202"/>
						</g>
						<g id="XMLID_816_">
							<polygon id="XMLID_871_" fill="#332113" points="835.766,549.571 839.032,548.643 837.769,550.356 							"/>
							<polygon id="XMLID_868_" fill="#332113" points="813.493,549.571 810.226,548.643 811.49,550.356 							"/>
						</g>
					</g>
					<g id="XMLID_614_">
						<g>
							<path id="XMLID_21_" fill="#FFFFFF" stroke="#FF8080" stroke-width="0.942" stroke-miterlimit="10" d="M819.293,563.985
								c0.92,2.032,2.961,3.448,5.336,3.448c2.376,0,4.417-1.416,5.337-3.448H819.293z"/>
						</g>
					</g>
				</g>
				<linearGradient id="XMLID_12_" gradientUnits="userSpaceOnUse" x1="830.4785" y1="546.0449" x2="814.4276" y2="524.4379">
					<stop  offset="0" style="stop-color:#F94831"/>
					<stop  offset="1" style="stop-color:#983529"/>
				</linearGradient>
				<path id="XMLID_612_" fill="url(#XMLID_12_)" d="M847.854,534.342c-0.096-3.418-1.392-6.816-3.762-9.683
					c-3.197-3.867-8.313-6.725-14.008-7.824c-5.275-1.02-10.344,1.086-12.938,4.68c-0.179-0.12-0.372-0.225-0.592-0.292
					c-3.405-1.039-7.14,0.045-9.914,2.879c-2.775,2.834-5.794,7.36-5.798,12.022c-0.001,0.473,0.01,0.921,0.023,1.358
					c0.836,2.85,1.537,5.753,2.437,8.516c0.656,2.02,1.391,4.316,2.401,6.448c0.068-0.101,0.133-0.21,0.197-0.317
					c-0.008-0.052-0.015-0.103-0.022-0.154c-0.477-1.684-0.597-3.398-0.406-5.067c-0.028-5.446,1.426-11.049,6.746-12.826
					c0.205-0.069,2.681-1.358,4.157-2.846c2.798,6.091,10.017,10.283,17.255,9.915c-1.184-1.485-1.942-3.194-2.609-4.937
					c1.745,1.617,3.937,2.761,5.911,4.133c2.431,1.689,4.731,4.143,4.726,7.104c1.176-2.428,1.581-5.197,1.246-7.872
					c0.083,0.354,0.152,0.698,0.195,1.022c0.577,4.36,0.306,8.841-0.846,13.088c2.042-3.231,4.012-6.563,5.114-10.224
					C848.234,540.594,848.574,537.321,847.854,534.342z"/>
			</g>
		</g>
	</g>
	<g id="XMLID_517_">
		<circle id="XMLID_675_" opacity="0.1" cx="973.354" cy="272.293" r="43.532"/>
		<g id="XMLID_518_">
			<circle id="XMLID_674_" fill="#FFFFFF" cx="973.354" cy="272.293" r="39.851"/>
			<g id="XMLID_520_">
				<defs>
					<circle id="XMLID_523_" cx="973.354" cy="272.293" r="39.851"/>
				</defs>
				<clipPath id="XMLID_13_">
					<use xlink:href="#XMLID_523_"  overflow="visible"/>
				</clipPath>
				<g id="XMLID_956_" clip-path="url(#XMLID_13_)">
					<g id="XMLID_962_">
						<path id="XMLID_976_" fill="#F9D5B4" d="M1001.271,302.434c-1.259-0.891-2.711-1.545-4.247-1.971l-1.618-0.431
							c0.011-0.003,0.022-0.006,0.033-0.009l-12.746-4.144c-1.027-0.276-1.599-1.115-1.781-2.056
							c-0.518-2.658-0.456-9.053-0.442-10.193c0.001-0.09-0.08-0.158-0.182-0.158h-0.609h-12.646h-0.61
							c-0.1,0-0.182,0.069-0.182,0.158c0.013,1.13,0.064,7.396-0.442,10.193c-0.17,0.942-0.753,1.779-1.78,2.056l-12.747,4.144
							c0.011,0.003,0.023,0.006,0.034,0.01l-1.658,0.44c-1.322,0.367-2.592,0.89-3.707,1.619c-5.83,3.813-5.997,10.053-6.238,11.214
							c-0.021,0.1,0.064,0.189,0.178,0.189h33.476h33.476c0.113,0,0.199-0.09,0.179-0.189
							C1006.774,312.18,1006.689,306.267,1001.271,302.434z"/>
						<g id="XMLID_974_">
							<g>
								<path id="XMLID_20_" fill="#ED7076" d="M1001.271,302.434c-1.259-0.891-2.711-1.545-4.247-1.971l-1.618-0.431
									c0.011-0.003,0.022-0.006,0.033-0.009l-10.966-3.564c-3.428,1.303-7.182,2.025-11.118,2.025s-7.689-0.723-11.118-2.025
									l-10.966,3.564c0.011,0.003,0.023,0.006,0.034,0.01l-1.658,0.44c-1.322,0.367-2.592,0.89-3.707,1.619
									c-5.83,3.813-5.997,10.053-6.238,11.214c-0.021,0.1,0.064,0.189,0.178,0.189h33.476h33.476c0.113,0,0.199-0.09,0.179-0.189
									C1006.774,312.18,1006.689,306.267,1001.271,302.434z"/>
							</g>
						</g>
						<g id="XMLID_972_">
							<path id="XMLID_973_" fill="#F2B78B" d="M980.632,291.422c-0.06-2.979-0.171-5.775-0.163-6.532
								c0.001-0.111-0.08-0.197-0.182-0.197h-13.865c-0.1,0-0.182,0.086-0.182,0.197c0.007,0.755-0.109,3.565-0.174,6.553
								c0.991,1.032,4.664,2.501,7.13,2.517C975.766,293.977,979.563,292.237,980.632,291.422z"/>
						</g>
						<g id="XMLID_969_">
							<path id="XMLID_971_" fill="#F9D5B4" d="M960.268,269.927c0.977,2.631,0.419,6.743-1.243,7.537
								c-1.663,0.794-3.804-2.03-4.78-4.661s-0.42-5.407,1.242-6.201C957.15,265.808,959.291,267.296,960.268,269.927z"/>
							<path id="XMLID_970_" fill="#F9D5B4" d="M986.442,269.927c-0.977,2.631-0.421,6.743,1.243,7.537
								c1.662,0.794,3.803-2.03,4.779-4.661c0.978-2.631,0.421-5.407-1.242-6.201S987.419,267.296,986.442,269.927z"/>
						</g>
						<path id="XMLID_968_" fill="#F9D5B4" d="M973.201,246.6c-16.494-0.547-16.738,15.249-16.49,20.455
							c0.181,3.791,1.081,9.302,1.884,12.037c0.462,1.572,1.298,4.2,2.495,5.343c3.217,3.069,7.214,5.791,9.685,6.734
							c0.446,0.17,1.423,0.247,2.427,0.24c1.006,0.007,1.98-0.07,2.426-0.24c2.472-0.943,6.469-3.665,9.686-6.734
							c1.198-1.143,2.034-3.771,2.495-5.343c0.803-2.735,1.703-8.246,1.884-12.037C989.939,261.849,989.695,246.053,973.201,246.6z"
							/>
						<g id="XMLID_965_">
							<ellipse id="XMLID_967_" fill="#332113" cx="964.659" cy="268.386" rx="2.061" ry="2.34"/>
							<ellipse id="XMLID_966_" fill="#332113" cx="981.392" cy="268.386" rx="2.061" ry="2.34"/>
						</g>
						<linearGradient id="XMLID_14_" gradientUnits="userSpaceOnUse" x1="969.4453" y1="243.2207" x2="971.5437" y2="252.8733">
							<stop  offset="0.3668" style="stop-color:#FFF3D4"/>
							<stop  offset="1" style="stop-color:#F7D060"/>
						</linearGradient>
						<path id="XMLID_964_" fill="url(#XMLID_14_)" d="M988.889,253.468c-0.043-0.28-0.133-0.556-0.289-0.806
							c-2.586-4.163-8.073-7.205-15.208-6.928c-7.135-0.276-12.622,2.766-15.208,6.928c-0.156,0.25-0.246,0.525-0.289,0.806
							c-1.855,3.555-1.136,7.679-1.188,10.66c0.124,1.966,0.447,3.894,1.055,5.633c0.492-2.676,0.32-5.427,0.934-8.124
							c0.45-1.979,1.085-3.914,1.895-5.774c3.487,1.389,7.938,2.229,12.802,2.229s9.314-0.84,12.802-2.229
							c0.81,1.86,1.444,3.795,1.895,5.774c0.613,2.697,0.44,5.448,0.934,8.124c0.608-1.739,0.932-3.667,1.055-5.633
							C990.024,261.146,990.744,257.022,988.889,253.468z"/>
						<linearGradient id="XMLID_23_" gradientUnits="userSpaceOnUse" x1="973.4688" y1="237.7148" x2="975.1475" y2="258.2797">
							<stop  offset="0.3668" style="stop-color:#FFF3D4"/>
							<stop  offset="1" style="stop-color:#F7D060"/>
						</linearGradient>
						<path id="XMLID_963_" fill="url(#XMLID_23_)" d="M965.964,257.401c-3.85-1.508,0.617-7.816,1.341-8.507
							c3.019-2.883,8.216-3.586,9.057-8.649c4.14,1.545,7.429,5.197,8.532,9.475c0.475,1.838-1.231,6.291-2.771,7.402
							C982.123,257.123,973.09,260.19,965.964,257.401z"/>
					</g>
					<g id="XMLID_957_">
						<g>
							<path id="XMLID_17_" fill="#FFFFFF" d="M969.1,280.579c0.733,1.619,2.361,2.748,4.255,2.748s3.521-1.129,4.255-2.748H969.1z"
								/>
						</g>
					</g>
				</g>
			</g>
		</g>
	</g>
	<g id="XMLID_622_">
		<circle id="XMLID_739_" opacity="0.1" cx="1231.589" cy="350.553" r="36.997"/>
		<g id="XMLID_623_">
			<circle id="XMLID_738_" fill="#FFFFFF" cx="1231.588" cy="350.553" r="33.868"/>
			<g id="XMLID_624_">
				<defs>
					<circle id="XMLID_627_" cx="1231.588" cy="350.553" r="33.868"/>
				</defs>
				<clipPath id="XMLID_32_">
					<use xlink:href="#XMLID_627_"  overflow="visible"/>
				</clipPath>
				<g id="XMLID_628_" clip-path="url(#XMLID_32_)">
					<g id="XMLID_682_">
						<g id="XMLID_683_">
							<g id="XMLID_716_">
								<path id="XMLID_737_" fill="#C68458" d="M1255.032,376.766c-1.058-0.748-2.276-1.297-3.567-1.654l-1.358-0.361
									c0.01-0.004,0.019-0.006,0.028-0.008l-10.705-3.479c-0.862-0.233-1.342-0.937-1.495-1.727
									c-0.435-2.232-0.384-7.603-0.372-8.561c0.001-0.075-0.067-0.133-0.152-0.133h-0.512h-10.619h-0.513
									c-0.085,0-0.152,0.058-0.151,0.133c0.01,0.949,0.053,6.21-0.373,8.561c-0.143,0.791-0.633,1.493-1.495,1.727l-10.704,3.479
									c0.01,0.003,0.02,0.004,0.028,0.008l-1.394,0.37c-1.109,0.308-2.176,0.747-3.112,1.359
									c-4.896,3.202-5.036,8.442-5.239,9.417c-0.017,0.084,0.055,0.16,0.15,0.16h28.112h28.112c0.095,0,0.167-0.076,0.15-0.16
									C1259.653,384.951,1259.582,379.984,1255.032,376.766z"/>
								<g id="XMLID_735_">
									<path id="XMLID_736_" fill="#E0D94D" d="M1255.032,376.766c-1.058-0.748-2.276-1.297-3.567-1.654l-1.358-0.361
										c0.01-0.004,0.019-0.006,0.028-0.008l-9.209-2.994c-2.879,1.094-6.03,1.701-9.337,1.701s-6.458-0.607-9.337-1.701
										l-9.209,2.994c0.01,0.003,0.02,0.004,0.028,0.008l-1.394,0.37c-1.109,0.308-2.176,0.747-3.112,1.359
										c-4.896,3.202-5.036,8.442-5.239,9.417c-0.017,0.084,0.055,0.16,0.15,0.16h28.112h28.112c0.095,0,0.167-0.076,0.15-0.16
										C1259.653,384.951,1259.582,379.984,1255.032,376.766z"/>
								</g>
								<g id="XMLID_733_">
									<path id="XMLID_734_" fill="#A56A42" d="M1237.7,367.519c-0.051-2.502-0.144-4.851-0.138-5.486
										c0.001-0.094-0.067-0.165-0.152-0.165h-11.644c-0.085,0-0.152,0.071-0.151,0.165c0.005,0.635-0.094,2.995-0.146,5.504
										c0.832,0.867,3.916,2.099,5.986,2.113C1233.613,369.664,1236.803,368.204,1237.7,367.519z"/>
								</g>
								<g id="XMLID_730_">
									<path id="XMLID_732_" fill="#C68458" d="M1220.598,349.467c0.82,2.209,0.353,5.662-1.043,6.33
										c-1.397,0.667-3.194-1.705-4.015-3.914c-0.821-2.209-0.353-4.541,1.044-5.208S1219.777,347.258,1220.598,349.467z"/>
									<path id="XMLID_731_" fill="#C68458" d="M1242.58,349.467c-0.82,2.209-0.354,5.662,1.043,6.33
										c1.396,0.667,3.194-1.705,4.015-3.914c0.819-2.209,0.353-4.541-1.044-5.208S1243.399,347.258,1242.58,349.467z"/>
								</g>
								<path id="XMLID_729_" fill="#C68458" d="M1231.46,329.877c-13.853-0.459-14.057,12.807-13.849,17.178
									c0.152,3.184,0.908,7.813,1.582,10.109c0.388,1.319,1.09,3.526,2.096,4.486c2.701,2.578,6.058,4.863,8.133,5.656
									c0.374,0.143,1.193,0.207,2.038,0.201c0.844,0.006,1.663-0.059,2.038-0.201c2.074-0.793,5.432-3.078,8.133-5.656
									c1.006-0.96,1.707-3.167,2.095-4.486c0.675-2.297,1.431-6.926,1.582-10.109
									C1245.516,342.684,1245.312,329.418,1231.46,329.877z"/>
								<g id="XMLID_725_">
									<path id="XMLID_726_" fill="#3A1E0B" d="M1234.221,364.133c-1.346-0.243-2.44-1.668-2.632-2.502
										c-0.191,0.834-1.287,2.259-2.632,2.502c-3.332,0.603-6.642-2.254-9.071-5.234c0.39,1.058,0.901,2.15,1.531,2.752
										c2.702,2.578,6.059,4.863,8.134,5.656c0.375,0.143,1.193,0.207,2.038,0.201c0.844,0.006,1.663-0.059,2.037-0.201
										c2.076-0.793,5.433-3.078,8.134-5.656c0.631-0.602,1.143-1.694,1.531-2.751
										C1240.861,361.879,1237.552,364.735,1234.221,364.133z"/>
								</g>
								<g id="XMLID_722_">
									<ellipse id="XMLID_724_" fill="#332113" cx="1224.286" cy="348.173" rx="1.73" ry="1.965"/>
									<ellipse id="XMLID_723_" fill="#332113" cx="1238.338" cy="348.173" rx="1.73" ry="1.965"/>
								</g>
								<g id="XMLID_717_">
									<g>
										<path id="XMLID_16_" fill="#FFFFFF" d="M1227.163,357.601c0.763,1.896,2.455,3.217,4.426,3.217
											c1.97,0,3.661-1.321,4.425-3.217H1227.163z"/>
									</g>
								</g>
							</g>
							<g id="XMLID_694_">
								<g id="XMLID_711_">
									<g>
										<path id="XMLID_15_" fill="#3A1E0B" d="M1219.246,342.919c0.589-2.589,1.552-5.094,2.867-7.4
											c-0.411-0.593-1.182-0.747-1.895-0.579c-2.113,3.202-2.593,7.249-2.642,10.072c0.104,1.65,0.375,3.27,0.887,4.73
											C1218.877,347.495,1218.732,345.185,1219.246,342.919z"/>
									</g>
								</g>
								<g id="XMLID_695_">
									<g>
										<path id="XMLID_18_" fill="#3A1E0B" d="M1243.931,342.919c-0.589-2.589-1.552-5.094-2.866-7.4
											c0.411-0.593,1.181-0.747,1.895-0.579c2.112,3.202,2.592,7.249,2.641,10.072c-0.103,1.65-0.375,3.27-0.886,4.73
											C1244.301,347.495,1244.445,345.185,1243.931,342.919z"/>
									</g>
								</g>
							</g>
							<linearGradient id="XMLID_33_" gradientUnits="userSpaceOnUse" x1="1231.5879" y1="337.0518" x2="1231.5879" y2="322.1204">
								<stop  offset="0" style="stop-color:#3A1E0B"/>
								<stop  offset="0.7085" style="stop-color:#904F22"/>
								<stop  offset="1" style="stop-color:#A7732E"/>
							</linearGradient>
							<path id="XMLID_693_" fill="url(#XMLID_33_)" d="M1244.603,335.564c-0.036-0.236-0.112-0.467-0.242-0.677
								c-0.525-0.846-1.196-1.635-1.993-2.345c0.008-0.789-0.327-1.658-0.728-2.367c-1.896-3.357-4.832-6.118-8.298-7.807
								c-0.025,1.887-1.507,3.457-3.136,4.41c-1.628,0.953-3.477,1.499-5.062,2.524c-0.408,0.244-1.129,0.808-1.716,1.455
								c-2.007,1.038-3.585,2.476-4.611,4.129c-0.131,0.21-0.207,0.44-0.243,0.677c-1.559,2.984-1.311,6.449-1.354,8.953
								c0.104,1.65,0.732,6.236,1.244,7.697c0.413-2.246,0.269-7.525,0.782-9.79c0.379-1.662,0.912-3.287,1.592-4.849
								c3.448-3.608,17.776-3.446,21.502,0c0.68,1.562,1.213,3.187,1.591,4.849c0.515,2.265,0.37,7.544,0.783,9.79
								c0.511-1.461,1.141-6.047,1.243-7.697C1245.914,342.014,1246.161,338.549,1244.603,335.564z"/>
						</g>
					</g>
					<g id="XMLID_629_">
						<g id="XMLID_634_">
							<path id="XMLID_678_" fill="#8ECDC7" d="M1229.991,345.679c-2.532-3.087-12.079-0.897-12.089-0.899
								c0.176,0.697,0.328,1.386,0.466,2.065c0.708,0.073,0.75,1.665,0.82,2.249c0.344,2.813,2.227,4.888,6.19,4.79
								c3.973-0.207,4.9-3.082,5.064-4.893C1230.622,347.017,1229.99,345.685,1229.991,345.679z M1229.539,349.135
								c-0.205,2.521-1.753,3.998-4.257,4.119c-0.253,0.014-0.5,0.016-0.735,0.005c-3.945-0.006-4.619-3.459-4.697-5.643
								c-0.051-1.251,0.843-2.32,2.102-2.444c0.725-0.07,1.539-0.07,2.48-0.07c2.949,0,4.231,0.702,4.573,1.268
								C1229.205,346.704,1229.653,347.766,1229.539,349.135z"/>
							<path id="XMLID_649_" fill="#8ECDC7" d="M1232.787,348.991c0.163,1.811,1.092,4.686,5.064,4.893
								c3.964,0.098,5.847-1.977,6.19-4.79c0.07-0.584,0.112-2.176,0.821-2.249c0.137-0.68,0.289-1.368,0.465-2.065
								c-0.011,0.002-9.557-2.188-12.09,0.899C1233.239,345.685,1232.608,347.017,1232.787,348.991z M1234.226,346.369
								c0.341-0.565,1.624-1.268,4.572-1.268c0.941,0,1.758,0,2.48,0.07c1.261,0.124,2.152,1.193,2.103,2.444
								c-0.078,2.184-0.753,5.636-4.697,5.643c-0.235,0.011-0.482,0.009-0.736-0.005c-2.503-0.122-4.051-1.598-4.256-4.119
								C1233.577,347.766,1234.025,346.704,1234.226,346.369z"/>
						</g>
						<path id="XMLID_633_" fill="#8ECDC7" d="M1233.328,348.104c-0.001-0.001-0.647-0.512-1.78-0.511
							c-1.061-0.001-1.645,0.511-1.646,0.511c-0.172-0.479-0.345-0.956-0.52-1.434c1.488,0,2.977,0,4.465,0
							C1233.674,347.147,1233.501,347.624,1233.328,348.104z"/>
					</g>
				</g>
			</g>
		</g>
	</g>
	<g id="XMLID_707_">
		<circle id="XMLID_791_" opacity="0.1" cx="1087.654" cy="428.886" r="51.093"/>
		<g id="XMLID_708_">
			<circle id="XMLID_790_" fill="#FFFFFF" cx="1087.654" cy="428.886" r="46.771"/>
			<g id="XMLID_709_">
				<defs>
					<circle id="XMLID_712_" cx="1087.654" cy="428.886" r="46.771"/>
				</defs>
				<clipPath id="XMLID_34_">
					<use xlink:href="#XMLID_712_"  overflow="visible"/>
				</clipPath>
				<g id="XMLID_548_" clip-path="url(#XMLID_34_)">
					<g id="XMLID_937_">
						<g id="XMLID_938_">
							<path id="XMLID_955_" fill="#D8AA8B" d="M1118.959,464.143c-1.434-1.015-3.086-1.759-4.835-2.244l-1.841-0.489
								c0.012-0.004,0.024-0.007,0.036-0.011l-14.509-4.716c-1.169-0.315-1.818-1.271-2.027-2.341
								c-0.589-3.025-0.52-10.305-0.504-11.604c0.002-0.102-0.091-0.18-0.206-0.18h-0.694h-14.395h-0.694
								c-0.114,0-0.207,0.079-0.206,0.18c0.014,1.286,0.073,8.418-0.504,11.604c-0.193,1.072-0.857,2.025-2.027,2.341l-14.509,4.716
								c0.013,0.004,0.025,0.007,0.038,0.012l-1.888,0.501c-1.505,0.417-2.95,1.013-4.22,1.844
								c-6.635,4.34-6.826,11.442-7.102,12.764c-0.023,0.113,0.074,0.216,0.203,0.216h38.105h38.105c0.13,0,0.227-0.103,0.203-0.216
								C1125.224,475.236,1125.126,468.505,1118.959,464.143z"/>
							<g id="XMLID_953_">
								<path id="XMLID_954_" fill="#C1977A" d="M1095.473,451.607c-0.069-3.39-0.195-6.574-0.188-7.436
									c0.002-0.127-0.091-0.224-0.205-0.224h-15.784c-0.114,0-0.207,0.097-0.206,0.224c0.008,0.859-0.126,4.06-0.197,7.459
									c1.127,1.175,5.309,2.846,8.115,2.865C1089.933,454.516,1094.255,452.536,1095.473,451.607z"/>
							</g>
							<g id="XMLID_950_">
								<path id="XMLID_952_" fill="#D8AA8B" d="M1072.29,427.14c1.112,2.994,0.479,7.676-1.415,8.579
									c-1.893,0.904-4.329-2.312-5.441-5.306c-1.111-2.995-0.478-6.154,1.416-7.059
									C1068.742,422.451,1071.179,424.146,1072.29,427.14z"/>
								<path id="XMLID_951_" fill="#D8AA8B" d="M1102.086,427.14c-1.112,2.994-0.479,7.676,1.414,8.579
									c1.895,0.904,4.33-2.312,5.441-5.306c1.111-2.995,0.479-6.154-1.414-7.059
									C1105.634,422.451,1103.197,424.146,1102.086,427.14z"/>
							</g>
							<path id="XMLID_949_" fill="#D8AA8B" d="M1087.013,400.587c-18.774-0.623-19.052,17.357-18.77,23.283
								c0.205,4.315,1.229,10.589,2.144,13.702c0.525,1.789,1.477,4.78,2.839,6.082c3.663,3.494,8.213,6.592,11.026,7.665
								c0.506,0.194,1.617,0.281,2.761,0.273c1.145,0.008,2.255-0.079,2.763-0.273c2.813-1.073,7.363-4.171,11.024-7.665
								c1.363-1.302,2.315-4.293,2.84-6.082c0.914-3.113,1.938-9.387,2.144-13.702
								C1106.066,417.944,1105.789,399.964,1087.013,400.587z"/>
							<g id="XMLID_946_">
								<ellipse id="XMLID_948_" fill="#332113" cx="1077.289" cy="425.386" rx="2.346" ry="2.664"/>
								<ellipse id="XMLID_947_" fill="#332113" cx="1096.336" cy="425.386" rx="2.346" ry="2.664"/>
							</g>
							<g id="XMLID_944_">
								<path id="XMLID_945_" fill="#42428E" d="M1112.283,461.409c0.012-0.004,0.024-0.007,0.036-0.011l-12.481-4.058
									c-2.51,2.969-8.174,7.152-12.656,7.152c-4.481,0-9.895-3.756-12.656-7.152l-12.481,4.058
									c0.013,0.004,0.025,0.007,0.038,0.012l-0.876,0.232v15.092h25.976h25.977v-15.093L1112.283,461.409z"/>
							</g>
							<g id="XMLID_939_">
								<g>
									<path id="XMLID_27_" fill="#FFFFFF" d="M1081.016,438.338c1.033,2.283,3.328,3.874,5.997,3.874
										c2.671,0,4.965-1.591,5.999-3.874H1081.016z"/>
								</g>
							</g>
						</g>
					</g>
					<linearGradient id="XMLID_35_" gradientUnits="userSpaceOnUse" x1="1063.7422" y1="415.6934" x2="1108.7178" y2="415.6934">
						<stop  offset="0" style="stop-color:#6B2405"/>
						<stop  offset="1" style="stop-color:#904F22"/>
					</linearGradient>
					<path id="XMLID_581_" fill="url(#XMLID_35_)" d="M1108.012,413.521c-0.725-3.075-4.135-8.927-7.705-8.481
						c-0.674-2.229-2.146-4.227-3.999-5.504c-2.892-1.992-6.519-2.436-9.926-1.979c-5.508,0.736-12.179,2.744-15.786,7.281
						s-7.024,11.033-6.847,17.001c0.857-1.235,1.807-2.32,2.82-3.279c-0.193,5.435,1.096,10.926,3.882,15.437
						c-0.184-3.516,0.258-7.066,1.259-10.407c0.022,1.637,0.267,3.277,0.739,4.856c-0.152-0.508,3.491-4.966,4.409-6.298
						c-0.019,0.244-0.035,0.485-0.044,0.729c0.02-0.559,5.885-4.04,6.641-4.689c1.631-1.396,3.155-2.919,4.563-4.54
						c-0.496,0.888-0.953,1.796-1.373,2.702c-0.397,0.857-1.759,6.433-2.314,6.666c4.195-1.768,7.866-4.762,10.441-8.517
						c0.603-0.879,0.994-1.773,1.207-2.616c0.219-0.02,0.428-0.034,0.629-0.045c0.065,0.204,0.14,0.405,0.224,0.602
						c0.642,1.506,1.704,2.786,2.638,4.132c3.503,5.05,5.257,11.289,4.899,17.425
						C1108.439,428.078,1109.648,420.472,1108.012,413.521z"/>
				</g>
			</g>
		</g>
	</g>
	<g id="XMLID_759_">
		<circle id="XMLID_843_" opacity="0.1" cx="1148.236" cy="570.884" r="64.094"/>
		<circle id="XMLID_842_" fill="#FFFFFF" cx="1148.237" cy="570.884" r="58.672"/>
		<g id="XMLID_761_">
			<defs>
				<circle id="XMLID_764_" cx="1148.237" cy="570.884" r="58.672"/>
			</defs>
			<clipPath id="XMLID_36_">
				<use xlink:href="#XMLID_764_"  overflow="visible"/>
			</clipPath>
		</g>
		<g id="XMLID_295_">
			<defs>
				<circle id="XMLID_294_" cx="1148.237" cy="570.884" r="58.672"/>
			</defs>
			<clipPath id="XMLID_37_">
				<use xlink:href="#XMLID_294_"  overflow="visible"/>
			</clipPath>
			<g id="XMLID_897_" clip-path="url(#XMLID_37_)">
				<g id="XMLID_898_">
					<linearGradient id="XMLID_38_" gradientUnits="userSpaceOnUse" x1="1147.7813" y1="612.6006" x2="1147.7813" y2="579.8529">
						<stop  offset="0" style="stop-color:#3A1E0B"/>
						<stop  offset="1" style="stop-color:#904F22"/>
					</linearGradient>
					<path id="XMLID_936_" fill="url(#XMLID_38_)" d="M1164.738,616.199c5.689,1.035,2.93,8.287,7.434,4.569
						c4.505-3.718,6.965-56.274,6.528-63.22c-0.437-6.946-2.112-13.947-5.829-19.691c-5.486-8.477-15.396-12.658-25.102-12.658
						c-9.707,0-19.615,4.182-25.102,12.658c-3.717,5.744-5.394,12.745-5.83,19.691c-0.436,6.945,4.68,59.502,9.185,63.22
						s-0.911-3.534,4.778-4.569H1164.738z"/>
					<g id="XMLID_933_">
						<path id="XMLID_935_" fill="#E5B295" d="M1148.236,621.82c8.189,0,15.785-4.336,22.057-11.728l-10.793-3.365
							c-1.324-0.401-2.062-1.62-2.299-2.984c-0.667-3.859-0.588-14.029-0.57-15.686c0.002-0.13-0.104-0.229-0.234-0.229h-16.32
							c-0.13,0-0.234,0.1-0.233,0.229c0.016,1.64,0.082,11.622-0.571,15.686c-0.22,1.366-0.973,2.583-2.299,2.984l-10.791,3.365
							C1132.451,617.484,1140.047,621.82,1148.236,621.82z"/>
						<path id="XMLID_934_" fill="#E5B295" d="M1105.59,631.144L1105.59,631.144c-0.021,0.107,0.036,0.208,0.128,0.252
							C1105.626,631.352,1105.569,631.251,1105.59,631.144z"/>
					</g>
					<g id="XMLID_931_">
						<path id="XMLID_932_" fill="#D39E7A" d="M1156.674,596.6c-0.078-3.474-0.053-6.774-0.043-7.656
							c0.002-0.131-0.104-0.23-0.234-0.23h-16.32c-0.13,0-0.234,0.1-0.233,0.23c0.008,0.881,0.03,4.17-0.052,7.653
							C1145.249,598.466,1151.215,598.467,1156.674,596.6z"/>
					</g>
					<g id="XMLID_928_">
						<path id="XMLID_930_" fill="#E5B295" d="M1128.563,566.951c1.469,3.486,0.632,8.938-1.868,9.99
							c-2.5,1.054-5.718-2.691-7.186-6.178c-1.468-3.487-0.632-7.168,1.868-8.221
							C1123.878,561.49,1127.095,563.464,1128.563,566.951z"/>
						<path id="XMLID_929_" fill="#E5B295" d="M1167.911,566.951c-1.469,3.486-0.632,8.938,1.868,9.99
							c2.5,1.054,5.717-2.691,7.186-6.178c1.469-3.487,0.632-7.168-1.869-8.221C1172.596,561.49,1169.379,563.464,1167.911,566.951z
							"/>
					</g>
					<path id="XMLID_927_" fill="#E5B295" d="M1148.236,538.916c-25.029-0.981-25.392,16.495-25.019,24.346
						c0.271,5.698,2.51,13.982,3.717,18.096c0.693,2.362,1.95,4.542,3.75,6.259c6.533,6.234,17.552,8.354,17.552,8.354
						s11.02-2.119,17.553-8.354c1.8-1.717,3.057-3.896,3.749-6.259c1.207-4.113,3.446-12.397,3.718-18.096
						C1173.629,555.411,1173.267,537.935,1148.236,538.916z"/>
					<g id="XMLID_924_">
						<polygon id="XMLID_926_" fill="#332113" points="1161.088,564.163 1165.004,563.051 1163.489,565.104 						"/>
						<polygon id="XMLID_925_" fill="#332113" points="1134.395,564.163 1130.479,563.051 1131.994,565.104 						"/>
					</g>
					<g id="XMLID_921_">
						<ellipse id="XMLID_923_" fill="#332113" cx="1135.165" cy="565.264" rx="3.258" ry="3.838"/>
						<ellipse id="XMLID_922_" fill="#332113" cx="1160.318" cy="565.264" rx="3.257" ry="3.838"/>
					</g>
					<g id="XMLID_916_">
						<g>
							<path id="XMLID_29_" fill="#FFFFFF" stroke="#D6702B" stroke-width="1.5731" stroke-miterlimit="10" d="M1139.325,581.004
								c1.537,3.393,4.945,5.757,8.911,5.757c3.967,0,7.375-2.364,8.912-5.757H1139.325z"/>
						</g>
					</g>
					<circle id="XMLID_915_" fill="#E29E83" cx="1131.54" cy="574.479" r="3.625"/>
					<circle id="XMLID_914_" fill="#E29E83" cx="1163.575" cy="574.479" r="3.625"/>
					<g id="XMLID_912_">
						<path id="XMLID_913_" fill="#FFF68C" d="M1148.359,532.763c-14.557,0-26.357,11.409-26.357,25.483
							c0,1.507,0.871,4.101,0.928,3.88c3.215-12.506,17.921-15.278,25.438-15.278c7.517,0,22.069,1.983,25.438,15.278
							c0.055,0.218,0.911-2.374,0.911-3.88C1174.718,544.172,1162.917,532.763,1148.359,532.763z"/>
					</g>
					<path id="XMLID_911_" fill="#BEC2F5" d="M1139.276,603.71c-0.002,0.011-0.003,0.022-0.005,0.033
						c-0.22,1.366-0.973,2.583-2.299,2.984l-18.548,5.784c-1.706,0.531-3.345,1.291-4.784,2.35
						c-7.523,5.536-7.74,14.596-8.051,16.282c-0.027,0.144,0.083,0.273,0.229,0.273h42.417h42.418c0.146,0,0.257-0.13,0.23-0.273
						c-0.303-1.637-0.413-10.223-7.406-15.787c-1.625-1.294-3.498-2.243-5.48-2.861l-18.498-5.768
						c-1.324-0.401-2.062-1.621-2.299-2.984c-0.001-0.011-0.002-0.022-0.004-0.033c-2.909,0.093-5.9,0.144-8.961,0.144
						C1145.177,603.854,1142.186,603.803,1139.276,603.71z"/>
					
						<line id="XMLID_910_" fill="none" stroke="#FFF68C" stroke-width="1.6323" stroke-miterlimit="10" x1="1148.236" y1="602.168" x2="1148.236" y2="631.144"/>
					<g id="XMLID_908_">
						<path id="XMLID_909_" fill="#FFF68C" d="M1148.236,602.168c-2.961,0-5.873-0.131-8.739-0.36
							c-0.063,0.714-0.136,1.361-0.221,1.902c2.909,0.093,5.9,0.144,8.96,0.144c3.061,0,6.052-0.051,8.961-0.144
							c-0.09-0.529-0.166-1.179-0.23-1.901C1154.104,602.037,1151.195,602.168,1148.236,602.168z"/>
					</g>
					<g id="XMLID_899_">
						<g id="XMLID_903_">
							<g id="XMLID_905_">
								<path id="XMLID_907_" fill="none" stroke="#FFFFFF" stroke-width="0.8161" stroke-miterlimit="10" d="M1124.784,568.756
									c-3.075,13.186,1.066,27.823,10.593,37.442c2.481,2.507,5.3,4.693,7.514,7.439c2.215,2.746,5.733,6.254,5.195,9.74"/>
								<path id="XMLID_906_" fill="none" stroke="#FFFFFF" stroke-width="0.8161" stroke-miterlimit="10" d="M1171.824,568.756
									c3.075,13.186-1.066,27.823-10.592,37.442c-2.482,2.507-5.301,4.693-7.515,7.439s-5.733,6.254-5.194,9.74"/>
							</g>
							
								<line id="XMLID_904_" fill="none" stroke="#FFFFFF" stroke-width="0.8161" stroke-miterlimit="10" x1="1148.304" y1="621.931" x2="1148.304" y2="631.513"/>
						</g>
						<g id="XMLID_900_">
							<path id="XMLID_902_" fill="#FFFFFF" d="M1174.977,569.224c0,1.323-1.079,2.396-2.41,2.396c-1.332,0-1.771-1.073-1.771-2.396
								s0.439-2.396,1.771-2.396C1173.897,566.827,1174.977,567.9,1174.977,569.224z"/>
							<path id="XMLID_901_" fill="#FFFFFF" d="M1121.496,569.224c0,1.323,1.08,2.396,2.41,2.396c1.332,0,1.771-1.073,1.771-2.396
								s-0.439-2.396-1.771-2.396C1122.576,566.827,1121.496,567.9,1121.496,569.224z"/>
						</g>
					</g>
				</g>
			</g>
		</g>
	</g>
	<g id="XMLID_63_">
		<defs>
			<rect id="XMLID_62_" x="706" y="199.984" width="627.016" height="627.016"/>
		</defs>
		<clipPath id="XMLID_39_">
			<use xlink:href="#XMLID_62_"  overflow="visible"/>
		</clipPath>
	</g>
	<circle id="XMLID_69_" fill="#FFFFFF" cx="939.312" cy="425.298" r="2.305"/>
	<circle id="XMLID_77_" fill="#FFFFFF" cx="1118.107" cy="359.732" r="3.667"/>
	<circle id="XMLID_82_" fill="#FFFFFF" cx="889.417" cy="560.125" r="3.028"/>
	<circle id="XMLID_83_" fill="#FFFFFF" cx="902.474" cy="478.59" r="9.084"/>
	<g id="XMLID_75_">
		<circle id="XMLID_68_" opacity="0.2" fill="#FFFFFF" cx="884.694" cy="368.576" r="5.176"/>
		<circle id="XMLID_71_" opacity="0.5" fill="#FFFFFF" cx="958.825" cy="469.49" r="3.43"/>
		<circle id="XMLID_73_" opacity="0.5" fill="#FFFFFF" cx="971.74" cy="511.58" r="4.916"/>
		<circle id="XMLID_78_" opacity="0.5" fill="#FFFFFF" cx="1269.581" cy="427.116" r="4.125"/>
		<circle id="XMLID_80_" opacity="0.5" fill="#FFFFFF" cx="767.316" cy="473.41" r="3.919"/>
		<circle id="XMLID_84_" opacity="0.5" fill="#FFFFFF" cx="907.49" cy="275.404" r="6.034"/>
		<circle id="XMLID_85_" opacity="0.2" fill="#FFFFFF" cx="1138.777" cy="307.413" r="4.729"/>
		<circle id="XMLID_86_" opacity="0.5" fill="#FFFFFF" cx="837.678" cy="319.495" r="5.095"/>
	</g>
</g>
<g id="objects">
	<g id="Layer_3">
		<g id="Layer_4">
		</g>
	</g>
</g>
</svg>
